<svg width="35" height="36" viewBox="0 0 35 36" fill="none" xmlns="http://www.w3.org/2000/svg">
<path d="M24.7916 3.03564H10.2083C6.18122 3.03564 2.91663 6.30023 2.91663 10.3273V24.9106C2.91663 28.9377 6.18122 32.2023 10.2083 32.2023H24.7916C28.8187 32.2023 32.0833 28.9377 32.0833 24.9106V10.3273C32.0833 6.30023 28.8187 3.03564 24.7916 3.03564Z" stroke="#F0BB1F" stroke-width="2" stroke-linecap="round" stroke-linejoin="round"/>
<path d="M23.3333 16.7001C23.5133 17.9138 23.306 19.1533 22.7409 20.2424C22.1758 21.3315 21.2817 22.2147 20.1857 22.7663C19.0897 23.3179 17.8477 23.5099 16.6363 23.315C15.425 23.1201 14.3059 22.5481 13.4383 21.6805C12.5707 20.8129 11.9988 19.6939 11.8038 18.4825C11.6089 17.2711 11.8009 16.0291 12.3525 14.9331C12.9042 13.8372 13.7873 12.9431 14.8764 12.3779C15.9655 11.8128 17.205 11.6055 18.4187 11.7855C19.6567 11.9691 20.8029 12.546 21.6879 13.431C22.5728 14.3159 23.1497 15.4621 23.3333 16.7001Z" stroke="#F0BB1F" stroke-width="2" stroke-linecap="round" stroke-linejoin="round"/>
<path d="M25.5209 9.59814H25.5355" stroke="#F0BB1F" stroke-width="2" stroke-linecap="round" stroke-linejoin="round"/>
</svg>
