<svg width="68" height="68" viewBox="0 0 68 68" fill="none" xmlns="http://www.w3.org/2000/svg">
<path d="M48.0533 17.4817C53.72 21.42 57.63 27.6817 58.4234 34.9067M9.88835 35.0484C10.2446 31.5837 11.3393 28.2356 13.0988 25.2298C14.8583 22.224 17.2417 19.6302 20.0883 17.6234M23.205 59.33C26.4917 61.0017 30.2317 61.9367 34.17 61.9367C37.9667 61.9367 41.5367 61.0867 44.7383 59.5284M34.17 21.8167C36.259 21.8167 38.2625 20.9868 39.7397 19.5097C41.2168 18.0325 42.0467 16.029 42.0467 13.94C42.0467 11.851 41.2168 9.84754 39.7397 8.37038C38.2625 6.89322 36.259 6.06335 34.17 6.06335C32.081 6.06335 30.0775 6.89322 28.6004 8.37038C27.1232 9.84754 26.2933 11.851 26.2933 13.94C26.2933 16.029 27.1232 18.0325 28.6004 19.5097C30.0775 20.9868 32.081 21.8167 34.17 21.8167ZM13.685 56.44C15.774 56.44 17.7775 55.6102 19.2547 54.133C20.7318 52.6558 21.5617 50.6524 21.5617 48.5633C21.5617 46.4743 20.7318 44.4709 19.2547 42.9937C17.7775 41.5165 15.774 40.6867 13.685 40.6867C11.596 40.6867 9.59253 41.5165 8.11537 42.9937C6.63821 44.4709 5.80835 46.4743 5.80835 48.5633C5.80835 50.6524 6.63821 52.6558 8.11537 54.133C9.59253 55.6102 11.596 56.44 13.685 56.44ZM54.315 56.44C56.404 56.44 58.4075 55.6102 59.8847 54.133C61.3618 52.6558 62.1917 50.6524 62.1917 48.5633C62.1917 46.4743 61.3618 44.4709 59.8847 42.9937C58.4075 41.5165 56.404 40.6867 54.315 40.6867C52.226 40.6867 50.2225 41.5165 48.7454 42.9937C47.2682 44.4709 46.4383 46.4743 46.4383 48.5633C46.4383 50.6524 47.2682 52.6558 48.7454 54.133C50.2225 55.6102 52.226 56.44 54.315 56.44Z" stroke="#203456" stroke-width="4.25" stroke-linecap="round" stroke-linejoin="round"/>
<circle cx="13.6" cy="49.8666" r="4.53333" fill="#F26622"/>
<circle cx="54.4" cy="49.8666" r="4.53333" fill="#F26622"/>
<circle cx="34" cy="13.6" r="4.53333" fill="#F26622"/>
</svg>
