<svg width="84" height="74" viewBox="0 0 84 74" fill="none" xmlns="http://www.w3.org/2000/svg">
<path d="M25.7083 35.4625H6.16659C6.49992 16.0042 10.3333 12.7959 22.2916 5.71252C23.6666 4.87919 24.1249 3.12918 23.2916 1.71252C23.0997 1.3845 22.8444 1.09799 22.5405 0.869685C22.2367 0.641381 21.8905 0.475861 21.522 0.382777C21.1536 0.289693 20.7703 0.27091 20.3945 0.327523C20.0187 0.384136 19.6579 0.515012 19.3333 0.712517C5.24992 9.04585 0.333252 14.1292 0.333252 38.3375L0.333252 60.7959C0.333252 67.9209 6.12492 73.6709 13.2083 73.6709H25.7083C33.0416 73.6709 38.5833 68.1292 38.5833 60.7959V48.2959C38.5833 41.0042 33.0416 35.4625 25.7083 35.4625ZM70.7874 35.4625L51.2458 35.4625C51.5791 16.0042 55.4124 12.7959 67.3708 5.71252C68.7458 4.87919 69.2041 3.12918 68.3708 1.71252C68.1744 1.3835 67.9151 1.09652 67.6075 0.868048C67.2999 0.63958 66.9503 0.474131 66.5786 0.381208C66.2069 0.288285 65.8205 0.269719 65.4416 0.326575C65.0627 0.383432 64.6988 0.514591 64.3708 0.712517C50.2874 9.04585 45.3708 14.1292 45.3708 38.3792V60.8375C45.3708 67.9625 51.1624 73.7125 58.2458 73.7125H70.7458C78.0791 73.7125 83.6208 68.1709 83.6208 60.8375V48.3375C83.6624 41.0042 78.1208 35.4625 70.7874 35.4625Z" fill="#F26622"/>
</svg>
