<svg width="59" height="59" viewBox="0 0 59 59" fill="none" xmlns="http://www.w3.org/2000/svg">
<path d="M26.4328 39.4807V44.4711C26.4328 48.6995 22.4995 52.1165 17.6565 52.1165C12.8136 52.1165 8.85571 48.6995 8.85571 44.4711V39.4807C8.85571 43.709 12.789 46.7082 17.6565 46.7082C22.4995 46.7082 26.4328 43.6845 26.4328 39.4807Z" stroke="#F26622" stroke-width="2.95" stroke-linecap="round" stroke-linejoin="round"/>
<path d="M26.4266 32.7203C26.4266 33.9495 26.0824 35.0803 25.4924 36.0637C24.042 38.4482 21.0674 39.9478 17.6258 39.9478C14.1841 39.9478 11.2095 38.4237 9.75912 36.0637C9.16912 35.0803 8.82495 33.9495 8.82495 32.7203C8.82495 30.6062 9.80828 28.7132 11.3816 27.3366C12.9795 25.9353 15.1675 25.0995 17.6012 25.0995C20.0349 25.0995 22.2229 25.9599 23.8208 27.3366C25.4433 28.6887 26.4266 30.6062 26.4266 32.7203V32.7203Z" stroke="#F26622" stroke-width="2.95" stroke-linecap="round" stroke-linejoin="round"/>
<path d="M26.4328 32.7205V39.4809C26.4328 43.7092 22.4995 46.7084 17.6565 46.7084C12.8136 46.7084 8.85571 43.6846 8.85571 39.4809V32.7205C8.85571 28.4921 12.789 25.0751 17.6565 25.0751C20.0903 25.0751 22.2782 25.9355 23.8761 27.3121C25.4495 28.6888 26.4328 30.6063 26.4328 32.7205ZM54.0841 25.0013V30.0655C54.0841 31.4176 54.4766 35.351 53.1 35.4001L46.2166 34.4168C43.5616 34.4168 41.7187 30.6309 41.4975 27.9759C41.35 26.4271 43.8934 24.9767 44.9259 23.9688C44.9259 23.9688 46.8066 23.9688 48.1833 23.9688L51.6258 23.2347C53.0025 23.2839 54.0841 23.6492 54.0841 25.0013Z" stroke="#F26622" stroke-width="2.95" stroke-linecap="round" stroke-linejoin="round"/>
<path d="M4.91675 25.263V19.9414C4.91675 12.7041 8.99085 7.64861 15.3256 6.79716C15.9715 6.69073 16.6422 6.63751 17.3378 6.63751H39.6957C40.3416 6.63751 40.9626 6.66412 41.5589 6.77055C47.9681 7.56879 52.1167 12.6509 52.1167 19.9414V23.7996H46.9496C45.5584 23.7996 44.2915 24.3849 43.3723 25.396C42.329 26.487 41.7327 28.0568 41.8818 29.7331C42.1054 32.6068 44.5647 34.7088 47.2477 34.7088H52.1167V38.5669C52.1167 46.5493 47.1483 51.8708 39.6957 51.8708H33.4852" stroke="#203456" stroke-width="3.93333" stroke-linecap="round" stroke-linejoin="round"/>
</svg>
