<svg width="119" height="112" viewBox="0 0 119 112" fill="none" xmlns="http://www.w3.org/2000/svg">
<path d="M70.6224 53.4121V110.58" stroke="#2A272D" stroke-width="1.9882" stroke-miterlimit="10"/>
<path d="M111.813 53.4121V110.58" stroke="#2A272D" stroke-width="1.9882" stroke-miterlimit="10"/>
<path d="M46.2681 71.065C46.2681 71.065 54.1721 69.2662 55.3621 74.4318C56.3898 78.8643 45.6393 78.6946 45.6393 78.6946L22.0015 78.8371C22.0015 78.8371 13.0968 79.8689 8.69518 69.5581C4.29354 59.2473 0.0541636 32.2451 0.0541636 32.2451C0.0541636 32.2451 -0.581406 28.5321 2.50178 27.9891C6.12587 27.3511 6.83581 35.2114 6.83581 35.2114C6.83581 35.2114 12.3125 68.5399 20.2639 70.169C21.4877 70.4201 22.4613 71.3501 23.7122 71.3365L46.2681 71.065Z" fill="#FFEEE3"/>
<path d="M67.2754 44.1425L74.7401 43.6266C75.3487 43.5859 75.9301 43.8642 76.275 44.3597L80.4467 50.6928L76.897 50.8625L74.8956 47.774C74.8956 47.774 69.1282 49.2198 66.9982 47.774L67.2754 44.1425Z" fill="#F2C09E"/>
<path d="M37.2076 23.625L47.1807 42.2306L67.9044 42.8958V49.738L46.0177 50.7019C43.1238 50.8308 40.3787 49.4393 38.756 47.0296L28.7965 29.0757L37.2076 23.625Z" fill="#CCCCCC"/>
<path d="M67.9044 42.8913V49.7335L65.5919 49.8353V42.8167L67.9044 42.8913Z" fill="#F7E5DA"/>
<path d="M57.0453 98.0428L58.2151 106.27L64.111 105.903L63.2658 97.4115L57.0453 98.0428Z" fill="#FCC9A7"/>
<path d="M56.8968 105.435C57.0252 105.048 57.485 104.892 57.8163 105.129C58.4654 105.591 59.6081 106.141 61.2511 105.93C62.9617 105.713 63.5635 104.797 63.7731 104.152C63.8813 103.812 64.2464 103.629 64.5777 103.758L75.2067 107.94C75.8558 108.191 76.3696 108.693 76.6468 109.331C76.9038 109.928 76.4778 110.6 75.822 110.614L57.8231 110.879C57.1131 110.892 56.5452 110.302 56.5722 109.589L56.7007 106.1C56.7007 106.039 56.7142 105.985 56.7345 105.93L56.8968 105.435Z" fill="#1F252A"/>
<path d="M39.1345 22.0288L40.8248 24.7507C40.933 25.0087 40.9804 25.6332 40.5138 25.864L39.858 26.3391L38.4516 24.1806L39.1345 22.0288Z" fill="#FFEEE3"/>
<path d="M35.9838 24.9071L35.4496 24.6491C33.6917 23.7871 32.9614 21.6557 33.8201 19.8908L39.5267 8.16138L45.8621 11.2702L39.2698 24.4048C38.5666 25.8642 37.4375 25.6198 35.9838 24.9071Z" fill="#FCC9A7"/>
<path d="M50.5883 13.5867C48.729 17.4014 44.138 18.9898 40.3381 17.1231C36.5382 15.2565 34.9561 10.6543 36.8154 6.83272C38.6748 3.01791 43.259 1.42954 47.0657 3.29621C50.8723 5.16288 52.4477 9.77187 50.5883 13.5867Z" fill="#FCC9A7"/>
<path d="M41.3389 21.1729C39.5336 20.2905 38.7831 18.098 39.6689 16.2857L42.8873 9.66748L50.6493 13.4755L48.0259 18.8718C46.8089 21.3562 43.8136 22.3948 41.3389 21.1729Z" fill="#FCC9A7"/>
<path d="M49.6419 15.0341L50.0611 17.9936C50.0949 18.4619 49.6013 18.7674 49.1686 18.557L47.2619 18.0343L49.6419 15.0341Z" fill="#FCC9A7"/>
<path d="M42.9209 13.5525C42.9209 13.5525 45.6051 13.729 46.0446 9.56799C46.0446 9.56799 50.71 12.5547 52.6099 11.3668C52.6099 11.3668 53.1914 -0.403387 43.5023 0.0106739C33.8133 0.424735 33.056 10.9256 33.056 10.9256L38.4922 15.8536L42.9209 13.5525Z" fill="#1C2226"/>
<path d="M43.3063 13.7228C42.7992 14.7749 41.5348 15.2094 40.4868 14.6935C39.4456 14.1776 39.0061 12.915 39.5199 11.8629C40.027 10.8108 41.2914 10.3764 42.3394 10.8923C43.3807 11.4081 43.8134 12.6707 43.3063 13.7228Z" fill="#FCC9A7"/>
<path d="M37.3903 12.1599L35.9501 15.5335C35.9501 15.5335 39.1145 18.0789 40.7101 14.8004L38.4113 14.1488L37.3903 12.1599Z" fill="#1C2226"/>
<path d="M46.0446 9.56621C46.0446 9.56621 52.3665 14.4671 54.8614 10.3604C56.8493 7.08185 54.6383 4.95726 51.4469 5.48672C50.0676 5.71751 49.3847 4.78078 48.3029 4.04089L46.0446 9.56621Z" fill="#1C2226"/>
<path d="M40.3652 27.9858C40.3652 27.9858 40.2232 24.9924 39.2766 23.9538C38.33 22.9153 33.286 20.0508 33.286 20.0508C33.286 20.0508 26.0311 22.1618 21.5753 30.4838C18.1067 36.9662 14.841 53.3725 14.841 53.3725L35.7742 56.4202C37.5795 44.1613 40.9602 38.5749 40.3652 27.9858Z" fill="#E5E5E5"/>
<path d="M33.6375 19.4717L32.7653 19.8654C32.4543 20.0079 32.3867 20.4288 32.6436 20.6596L38.1744 25.6012C38.3975 25.8048 38.7491 25.7437 38.9046 25.4858L39.5267 24.4065C39.6416 24.2029 39.5943 23.9449 39.4117 23.7956L34.1243 19.5464C33.9891 19.4242 33.7998 19.397 33.6375 19.4717Z" fill="#FFEEE3"/>
<path d="M64.9698 45.2561L72.4345 44.7403C73.043 44.6995 73.6245 44.9778 73.9694 45.4733L77.7963 50.9376L74.2195 51.3992L72.59 48.8809C72.59 48.8809 66.8224 50.3267 64.6926 48.8809L64.9698 45.2561Z" fill="#FCC9A7"/>
<path d="M32.9683 25.0092L44.2328 44.0899L65.5987 44.6804V50.8505L42.5424 51.8619C40.3788 51.957 38.3166 50.9184 37.0995 49.1128L24.5572 30.4598L32.9683 25.0092Z" fill="#C4C4C4"/>
<path d="M65.5985 44.6781V50.8415L63.2861 50.9433V44.6781H65.5985Z" fill="#FFEEE3"/>
<path d="M14.8411 53.3698L56.0178 59.3634C59.1686 59.825 61.6027 62.3841 61.907 65.5676L64.9767 100.776L55.7812 101.374L51.3593 70.8553L25.5038 71.5273C18.4855 71.5273 13.1035 65.2689 14.1244 58.2978L14.8411 53.3698Z" fill="#203456"/>
<path d="M87.8234 50.7023H66.1059V52.1142H87.8234V50.7023Z" fill="#2A272D"/>
<path d="M87.8301 52.1147L94.8552 31.5136L93.3812 31.1605L86.4914 50.9473L87.8301 52.1147Z" fill="#2A272D"/>
<path d="M40.994 20.9877C40.994 20.9877 39.0399 19.8269 39.0399 17.3833C39.0399 17.3833 37.8229 20.0306 40.3043 22.3588L40.994 20.9877Z" fill="#F2C09E"/>
<path d="M8.93867 111.91C9.26321 111.91 9.56071 111.686 9.64861 111.353L20.3992 68.8C21.2917 65.2772 24.4357 62.8132 28.0598 62.8132C31.5757 62.8132 34.6995 65.1821 35.6596 68.576C39.4189 81.8734 48.1681 110.885 48.256 111.177C48.3709 111.564 48.7834 111.788 49.1688 111.665C49.5542 111.55 49.7773 111.136 49.6556 110.749C49.5677 110.457 40.8185 81.4593 37.0659 68.1755C35.93 64.1504 32.2248 61.3402 28.053 61.3402C23.7596 61.3402 20.0273 64.259 18.9725 68.4334L8.22196 110.993C8.12054 111.387 8.35719 111.788 8.74935 111.889C8.81696 111.903 8.87781 111.91 8.93867 111.91Z" fill="#1F252A"/>
<path d="M37.1065 49.1095L30.6494 39.5182" stroke="#CCCCCC" stroke-width="0.7847" stroke-miterlimit="10" stroke-linecap="round" stroke-linejoin="round"/>
<path d="M118.926 52.1128H62.6644V54.6582H118.926V52.1128Z" fill="#FFEEE3"/>
<path d="M70.6224 60.8417H111.813" stroke="#2A272D" stroke-width="1.9882" stroke-miterlimit="10"/>
</svg>
