<svg width="106" height="118" viewBox="0 0 106 118" fill="none" xmlns="http://www.w3.org/2000/svg">
<path d="M0.286566 117.006C0.5049 117.126 0.821499 117.191 1.0835 117.224C2.04417 117.323 3.00483 117.388 3.97641 117.453C5.95234 117.573 7.93916 117.65 9.926 117.694C13.8997 117.781 17.8843 117.77 21.858 117.912C22.513 117.934 23.157 118.01 23.8011 117.999C32.1197 117.759 36.9339 117.759 43.1892 117.563C51.1147 117.311 59.5206 115.794 41.8792 114.691C38.113 114.451 34.1283 114.441 30.3512 114.233C27.0107 114.047 23.6592 113.971 20.3078 113.971C17.3931 113.971 14.4783 114.015 11.5635 114.047C8.51776 114.091 4.99166 113.491 2.18606 115.062C1.93498 115.204 1.69482 115.357 1.44373 115.478C1.0944 115.641 0.723231 115.739 0.417561 116.002C-0.182858 116.493 -0.0518516 116.82 0.286566 117.006Z" fill="url(#paint0_linear_456_3406)"/>
<path opacity="0.56" d="M0.28974 117.006C0.508074 117.126 0.824671 117.191 1.08667 117.224C2.04734 117.323 3.00801 117.388 3.97959 117.453C5.95552 117.573 7.94234 117.65 9.92918 117.694C13.9029 117.781 17.8875 117.77 21.8612 117.912C22.5161 117.934 23.1602 118.01 23.8043 117.999C32.1229 117.759 36.9371 117.759 43.1924 117.563C51.1179 117.311 59.5238 115.794 41.8824 114.691C38.1161 114.451 34.1315 114.441 30.3544 114.233C27.0139 114.047 23.6624 113.971 20.3109 113.971C17.3962 113.971 14.4815 114.015 11.5667 114.047C8.52095 114.091 4.99483 113.491 2.18924 115.062C1.93815 115.204 1.69799 115.357 1.44691 115.478C1.09757 115.641 0.726403 115.739 0.420735 116.002C-0.179684 116.493 -0.0486778 116.82 0.28974 117.006Z" fill="url(#paint1_linear_456_3406)"/>
<path d="M9.75141 87.193C10.1444 79.4097 9.31473 71.4734 9.39115 63.635C9.12919 60.9168 9.55494 58.1549 10.6248 55.6004C10.6903 55.4366 10.7667 55.2838 10.8977 55.1637C11.3125 54.7816 12.0112 54.989 12.557 55.1856C17.8079 57.1069 23.9977 56.6483 28.7792 53.941C29.729 55.2183 29.991 56.7794 30.2312 58.2968C30.6132 60.7421 31.0172 63.1875 31.1264 65.6437V65.6548C31.1482 66.1789 31.1591 66.7133 31.1482 67.2374C31.0827 70.3049 30.4168 73.3183 29.8927 76.3422C29.5543 78.3069 29.2596 80.2938 29.2268 82.2917C29.205 83.9289 29.467 85.4138 29.0521 87.0185C28.0369 90.9597 28.0369 95.2497 27.6112 99.267C27.1527 103.579 26.6942 107.88 26.323 112.204C26.3121 112.378 26.2902 112.542 26.2793 112.717C26.0391 112.771 22.2947 113.536 22.2947 112.684C22 104.311 21.6943 95.9378 21.3996 87.5537C21.2686 84.0272 21.5633 72.1172 20.559 68.7659C20.1441 68.7985 19.7293 68.8421 19.3145 68.8753C17.0329 79.9552 14.3364 99.3764 12.0548 110.457C11.8584 111.428 11.6073 112.487 10.8868 113.11C10.1662 113.743 8.81255 113.557 8.59427 112.586C9.2383 104.136 9.31473 95.6755 9.75141 87.193Z" fill="#213355"/>
<path d="M14.7124 10.1858C14.7124 6.98723 17.507 4.38904 20.9458 4.38904C24.3846 4.38904 27.1793 6.98723 27.1793 10.1858C27.1793 10.7207 27.0919 11.2338 26.95 11.7251C26.95 11.856 26.9391 11.9761 26.9391 12.1181C26.9609 13.2752 26.9063 14.4324 26.677 15.5786C26.2404 17.7947 25.0941 19.858 22.9218 21.1243C22.2012 21.5391 21.3715 21.8667 20.4982 21.8558C19.3302 21.8449 18.2712 21.2444 17.4634 20.513C14.7997 18.0567 14.5595 14.3778 14.7561 10.9063C14.7342 10.6552 14.7124 10.426 14.7124 10.1858Z" fill="#D1AC9D"/>
<path d="M23.7715 21.0253C23.4768 21.4183 23.182 21.8113 22.7453 22.0732C22.2323 22.3898 21.5772 22.4772 20.9441 22.488C20.1799 22.499 19.383 22.4007 18.7607 22.0077C18.3241 21.7239 17.2433 20.8506 16.9704 20.4357C16.0425 19.0275 15.453 18.0559 14.9617 16.4948C14.8089 16.0145 14.6779 15.5232 14.6997 15.032C14.8853 14.9556 15.1037 15.0756 15.191 15.2394C15.2783 15.4031 15.2674 15.5887 15.2783 15.7743C15.3111 16.735 15.8023 17.6411 16.2935 18.4926C16.7302 19.2458 17.8438 19.9117 18.5206 20.5013C19.1974 21.1017 20.1362 21.5165 21.086 21.4619C21.2061 21.451 21.3371 21.4401 21.4462 21.3855C21.6755 21.2654 21.7738 21.0143 21.8393 20.7851C21.9047 20.5558 21.992 20.3047 22.2104 20.1738C22.4287 20.0427 22.8327 20.1628 22.7999 20.403C22.7781 20.5558 22.6034 20.665 22.6034 20.8179C22.6034 20.9925 22.8545 21.1017 23.0401 21.0471C23.2257 21.0034 23.3676 20.8506 23.4876 20.7196C23.7824 20.3921 24.0881 20.0536 24.3828 19.7261C24.5139 19.5842 24.6558 19.4751 24.8304 19.5515C24.6121 20.0536 24.1317 20.5558 23.7715 21.0253Z" fill="#333333"/>
<path d="M22.1795 112.803C23.7843 112.683 25.4108 112.748 26.9938 112.989C28.2164 113.797 29.5592 114.473 30.9783 114.976C31.3932 115.128 31.819 115.27 32.1246 115.554C32.4303 115.837 32.5504 116.329 32.2665 116.624C32.0154 116.886 31.5788 116.919 31.1967 116.919C28.2274 116.951 25.258 116.722 22.3323 116.253C22.1577 116.22 21.9721 116.187 21.8411 116.078C21.7429 115.99 21.6883 115.86 21.6555 115.74C21.3608 114.746 21.5573 113.655 22.1795 112.803Z" fill="#3D322B"/>
<path d="M8.45449 111.905C9.89553 112.058 11.3146 112.353 12.6683 112.811C13.5853 113.717 14.6443 114.514 15.7905 115.18C16.129 115.377 16.4783 115.562 16.6857 115.868C16.8931 116.173 16.915 116.61 16.5984 116.839C16.3254 117.036 15.9324 116.992 15.594 116.938C12.9631 116.501 10.3868 115.846 7.90869 114.973C7.75584 114.918 7.60298 114.864 7.51562 114.743C7.43926 114.645 7.42832 114.536 7.41739 114.416C7.3519 113.499 7.73403 112.56 8.45449 111.905Z" fill="#3D322B"/>
<path d="M26.4993 64.3633C26.6849 63.9485 26.9359 63.5664 27.2197 63.1952C27.6127 62.6712 28.0603 62.1909 28.3987 61.645C28.628 61.2739 28.8136 60.87 29.1847 60.5971C29.3376 60.477 29.545 60.3896 29.7524 60.4223C29.938 60.4552 30.0799 60.5861 30.1672 60.739C30.2437 60.8918 30.2765 61.0556 30.2873 61.2193L30.2983 61.645C29.9598 63.0315 29.6324 64.4179 29.2939 65.7935C29.2284 66.0663 29.1411 66.3723 28.8682 66.5246C28.628 66.6561 28.3223 66.6229 28.0494 66.5793C27.4817 66.492 26.8704 66.3827 26.5211 65.968C26.139 65.5207 26.2591 64.8873 26.4993 64.3633Z" fill="#D1AC9D"/>
<path d="M29.2946 59.7348C29.1417 60.5099 29.0871 61.536 29.6876 61.7871C30.3098 62.0382 30.9429 61.1976 31.325 60.4771C32.1656 58.8942 33.0062 57.3113 33.8577 55.7392C35.4952 52.6607 37.1655 49.5058 37.9188 46.0671C38.2244 44.6697 38.3226 43.0431 37.5366 42.1043C37.0454 41.5148 36.3031 41.3183 35.5825 41.1873C32.0128 40.5432 32.2311 44.6151 31.6198 47.781C30.8447 51.7656 30.0696 55.7502 29.2946 59.7348Z" fill="#B4C8D3"/>
<path d="M24.3817 60.5018C24.7201 61.5826 25.1459 62.6415 25.6699 63.6131C26.6414 65.3814 28.8685 66.0695 30.9645 65.7856C30.9863 65.9386 30.9317 66.1893 30.9317 66.2876C30.8881 66.8116 30.7898 67.3357 30.637 67.8486C30.5278 68.1982 30.3859 68.5582 30.0584 68.7659C29.6872 69.0061 29.185 68.9951 28.7266 68.9514C27.9296 68.8857 27.1218 68.7659 26.3795 68.5146C25.3642 68.165 24.469 67.5759 23.6721 66.921C23.0717 66.4295 22.5149 65.8839 22.1329 65.2395C21.7617 64.6065 21.587 63.8969 21.4669 63.1873C21.3141 62.3031 21.2595 61.397 21.4014 60.5128C22.3293 60.5236 23.3555 60.5236 24.3817 60.5018Z" fill="#516277"/>
<path d="M30.3744 65.727C29.9596 65.7927 29.5338 65.7927 29.1189 65.7381C28.3002 65.6398 27.5033 65.3234 26.892 64.8212C26.368 64.3954 25.9859 63.8496 25.6474 63.2819C25.1235 62.3977 24.7305 61.4589 24.4575 60.4873C24.5449 60.4873 24.6431 60.4873 24.7305 60.4763C24.8724 60.9567 25.0252 61.4261 25.1889 61.8955C25.6038 63.0308 26.357 64.3954 27.5579 65.0723C28.5622 65.6508 29.7849 65.5415 30.9639 65.4978C31.1277 65.4874 31.1822 65.7381 31.0076 65.7602C30.9966 65.7602 30.9857 65.7602 30.9748 65.7602C30.9639 65.7166 30.953 65.673 30.9311 65.6508C30.8111 65.5851 30.5054 65.7055 30.3744 65.727Z" fill="#4B5B6B"/>
<path d="M25.6712 63.6131C25.1363 62.6415 24.7106 61.5935 24.3831 60.5018C24.4049 60.5018 24.4267 60.5018 24.4594 60.5018C24.7324 61.4734 25.1254 62.4122 25.6494 63.2965C25.9769 63.8532 26.3699 64.3991 26.8939 64.8358C27.5053 65.3378 28.3021 65.6548 29.1209 65.7524C29.5357 65.8071 29.9615 65.7967 30.3764 65.742C30.5073 65.7199 30.813 65.6001 30.9221 65.6873C30.944 65.7088 30.9658 65.7531 30.9658 65.7967C28.8808 66.0584 26.6428 65.3814 25.6712 63.6131Z" fill="#516277"/>
<path d="M8.15013 55.3478C8.17193 50.6972 8.18287 46.0577 8.20468 41.4071C8.21562 37.488 9.20904 33.3397 9.84219 29.4752C10.1915 27.3464 10.6064 26.6041 11.6762 24.7155C11.829 24.4426 11.8508 24.2679 13.27 23.853C13.5757 23.7657 14.3071 23.3837 14.6783 23.4491C16.5232 23.733 18.4009 23.0998 20.2458 23.3837C22.1999 23.6784 25.4749 22.7832 26.9924 23.995C29.0447 25.6216 29.1866 29.5079 29.5141 32.0406C29.9507 35.4575 30.9988 38.929 31.1843 42.3787C31.3481 45.4026 31.4355 48.4266 31.501 51.4505C31.5337 53.0225 32.1669 58.5136 30.6058 59.5616C29.6888 60.1729 27.2435 60.435 24.7217 60.5005C24.6343 60.5005 24.5361 60.5113 24.4488 60.5113C24.4269 60.5113 24.4051 60.5113 24.3724 60.5113C23.3462 60.5332 22.32 60.5332 21.392 60.5113C20.0165 60.4895 18.8594 60.424 18.2262 60.3695C15.2897 60.1293 12.3858 59.5835 9.50381 58.983C8.99069 58.8739 8.42302 58.732 8.15013 58.3062C7.95365 58.0005 8.15013 55.708 8.15013 55.3478Z" fill="#B4C8D3"/>
<path d="M29.22 25.839C28.4667 24.9875 27.6152 24.1688 26.6218 23.8849C25.6284 23.6011 24.4821 24.005 24.0891 25.0749C23.7398 26.0574 24.1001 27.2364 24.5039 28.2516C25.541 30.8498 26.851 33.2951 28.161 35.7295C29.5475 38.295 30.9229 40.8604 32.3094 43.4259C32.7243 44.2009 33.1828 45.0197 33.8596 45.4454C35.0495 46.1987 37.7787 45.2489 37.9861 43.6114C38.1717 42.1377 36.2066 38.5133 35.6499 37.1051C34.0233 33.0113 32.0256 29.0158 29.22 25.839Z" fill="#B4C8D3"/>
<path d="M21.0012 24.1253C20.903 24.0052 20.8047 23.8524 20.8593 23.7104C20.903 23.6013 21.0339 23.5467 21.1431 23.503C21.6671 23.2847 22.202 23.0881 22.7479 22.9135C22.9225 22.8589 23.1299 22.8044 23.2937 22.8917C23.381 22.9354 23.4356 23.0118 23.4902 23.0773C23.8286 23.5248 24.1671 23.9615 24.5054 24.4091C24.56 24.4746 24.6146 24.551 24.6146 24.6384C24.6146 24.7366 24.5273 24.824 24.4509 24.8895C24.0906 25.2388 23.7413 25.6099 23.4247 25.992C23.1954 26.2649 22.9225 26.92 22.4749 26.6361C22.1256 26.4178 22.0055 25.7519 21.8309 25.4134C21.6016 24.9768 21.3178 24.5401 21.0012 24.1253Z" fill="#ABBCC4"/>
<path d="M19.1645 25.8202C19.099 26.104 19.0662 26.3879 18.9571 26.6608C18.9461 26.6936 18.9243 26.7373 18.8916 26.7591C18.7824 26.8355 18.6405 26.7154 18.575 26.6172C17.9636 25.7657 17.2431 24.9688 16.4244 24.2592C16.2606 24.1173 16.0968 23.9754 15.9986 23.8007C15.9004 23.6151 15.9004 23.3858 16.0532 23.233C16.1515 23.1347 16.3043 23.0911 16.4462 23.0474C16.7519 22.9601 17.0685 22.8728 17.3742 22.7854C17.5597 22.7308 17.7562 22.6762 17.9527 22.698C18.1274 22.7199 18.2912 22.8073 18.444 22.8946C18.8151 23.1129 19.8631 23.5605 19.8959 23.9972C19.9177 24.2482 19.5902 24.6194 19.492 24.8596C19.3391 25.1652 19.2409 25.4928 19.1645 25.8202Z" fill="#ABBCC4"/>
<path d="M21.7053 25.6453C21.7162 25.6016 21.7272 25.5689 21.7053 25.5252C21.6944 25.4925 21.6617 25.4706 21.618 25.4488C21.1704 25.165 20.5918 25.0449 20.0569 25.1213C19.9914 25.1322 19.9259 25.1431 19.8713 25.1759C19.8058 25.2195 19.7731 25.2741 19.7512 25.3396C19.6311 25.6125 19.653 25.9291 19.7512 26.2129C19.8495 26.4968 20.0241 26.7479 20.1988 26.999C20.2206 27.0317 20.2425 27.0645 20.2862 27.0863C20.3189 27.1081 20.3625 27.1081 20.4062 27.1081C21.1486 27.0645 21.5525 26.1802 21.7053 25.6453Z" fill="#F26622"/>
<path d="M22.0444 34.8705C22.7758 39.0079 23.5073 43.1671 23.802 47.3482C23.8239 47.6321 23.8347 47.9159 23.7365 48.1779C23.6492 48.4071 23.4854 48.5927 23.3217 48.7783C22.6994 49.4879 22.0771 50.1975 21.4549 50.9071C21.3457 49.4442 19.3043 48.6691 18.8131 47.2609C18.6493 46.7806 18.6712 46.2674 18.7039 45.7653C18.9223 42.0536 19.1405 38.342 19.3589 34.6302C19.479 32.6106 19.1405 29.1173 20.3742 27.3925C21.2147 27.6217 21.2038 30.0452 21.3348 30.7657C21.5641 32.1412 21.8042 33.5058 22.0444 34.8705Z" fill="#F26622"/>
<path d="M3.6529 42.5855C2.27739 46.7557 1.24031 51.0133 0.552558 55.3144C0.487058 55.7183 0.432471 56.1659 0.650805 56.5262C0.934642 56.9738 1.54599 57.1485 2.10274 57.2904C5.41051 58.1091 8.71827 58.9278 12.037 59.7466C13.2269 60.0413 14.4386 60.3361 15.6722 60.3907C15.8905 60.4016 16.1307 60.4016 16.3272 60.2924C16.5455 60.1723 16.6547 59.9541 16.7421 59.7466C17.801 57.4432 18.7398 55.0961 19.5367 52.7162C19.9843 51.3844 20.3882 50.0417 20.7703 48.688C21.196 47.1487 20.8467 46.3846 19.1874 46.068C17.4626 45.7295 15.7704 45.1619 14.0674 44.7361C13.1941 44.5178 3.75115 42.2908 3.6529 42.5855Z" fill="#E2E2E2"/>
<path d="M9.37764 50.1165C9.35552 50.0945 9.33346 50.0724 9.3114 50.0503C9.35558 50.0614 9.37764 50.0834 9.37764 50.1165Z" fill="white"/>
<path d="M8.86131 51.9765C9.64732 52.0967 10.4006 52.2931 11.1539 52.5551C11.2958 52.6097 11.4922 52.4678 11.4704 52.3149C11.3613 51.2233 11.2521 50.1425 11.1429 49.0508C11.132 48.9526 11.0774 48.8871 11.001 48.8434C10.8918 48.6578 10.5861 48.6251 10.5424 48.8871C10.4661 49.3565 9.90935 49.8587 9.63639 50.2408C9.31981 50.6884 9.01416 51.1578 8.69759 51.6163C8.6321 51.7255 8.70852 51.9547 8.86131 51.9765ZM10.7062 49.6949C10.7827 50.4482 10.8591 51.2015 10.9355 51.9547C10.4115 51.7909 9.88748 51.66 9.35255 51.5617C9.63639 51.136 9.93116 50.7102 10.2259 50.2953C10.3678 50.0989 10.5534 49.9023 10.7062 49.6949Z" fill="white"/>
<path d="M5.74937 58.0539C5.80396 57.5954 6.00044 57.1696 6.14236 56.733C6.19694 56.5583 6.25153 56.3727 6.38253 56.2199C6.5681 56.0125 6.89562 55.9033 7.19039 55.9688C7.48516 56.0343 7.72531 56.2526 7.77987 56.5146L7.84536 56.9513C7.71438 57.2897 7.769 57.6609 7.93272 57.9884C8.09645 58.3159 8.36934 58.5888 8.67505 58.8071C8.84971 58.9382 9.05712 59.1019 8.99163 59.2875C8.94795 59.4294 8.77329 59.5058 8.6205 59.5495C8.27111 59.6478 7.91085 59.7132 7.55065 59.7132C7.04847 59.7241 6.50262 59.6259 6.15329 59.3093C5.79303 59.0037 5.69479 58.5124 5.74937 58.0539Z" fill="#D1AC9D"/>
<path d="M9.71142 48.3196C11.3817 41.6387 13.2265 34.9904 15.2134 28.3857C15.4427 27.6107 15.6828 26.8247 15.6064 26.0278C15.53 25.2308 15.0824 24.423 14.2636 24.0737C13.303 23.6697 12.1021 24.0518 11.3707 24.7396C10.6393 25.4274 10.2681 26.3444 9.94063 27.2504C6.92763 35.4707 5.70495 44.204 6.35996 52.8282C6.42545 53.7125 6.51281 54.6295 6.21803 55.481C6.0652 55.9286 5.82505 56.4744 6.19621 56.8129C6.63286 57.2167 7.64815 57.1949 7.98654 56.791C8.42323 56.2561 8.31405 54.5967 8.44503 53.9199C8.79436 52.0532 9.25292 50.1864 9.71142 48.3196Z" fill="#B4C8D3"/>
<path d="M25.8241 11.6177C24.8197 10.9518 23.2259 10.9299 22.3308 11.7923C22.3089 11.8033 22.298 11.8251 22.298 11.8469C21.7413 11.836 21.1627 11.8469 20.6059 11.7814C20.2456 10.8971 19.2522 10.2967 18.3243 10.4714C17.0034 10.4059 15.6497 11.0172 15.0712 12.3054C14.3616 13.8883 16.5558 15.0237 17.8658 15.0783C19.3832 15.1438 20.9661 13.8447 20.726 12.2181C20.726 12.1963 20.715 12.1853 20.715 12.1635C21.2718 12.1416 21.8395 12.1853 22.3962 12.2072C22.3744 13.9866 25.2891 15.8315 26.4791 14.1504C27.1013 13.2879 26.6319 12.1526 25.8241 11.6177ZM17.4837 14.5979C16.1519 14.3468 14.7218 13.1897 15.8681 11.8687C16.3266 11.3448 16.9597 11.0064 17.6366 10.8863C17.6475 11.0172 17.7676 11.1373 17.9313 11.0609C19.1103 10.5369 20.5731 11.5522 20.2784 12.8949C19.9946 14.1613 18.6846 14.8272 17.4837 14.5979ZM26.1625 13.8228C25.2892 15.2639 22.1124 13.3971 22.8329 11.967V11.9561C23.4879 11.6613 24.132 11.4867 24.8743 11.6723C25.7804 11.9124 26.752 12.8404 26.1625 13.8228Z" fill="#414141"/>
<path d="M71.4006 12.5215C71.6408 13.3075 71.8811 14.0935 72.034 14.9123C72.0991 15.2506 72.5692 15.1415 72.547 14.814C72.4813 13.9952 72.4377 13.1656 72.3068 12.3577C72.2085 11.7682 71.2262 11.9756 71.4006 12.5215Z" fill="#666666"/>
<path d="M67.6659 15.0008C67.9933 15.3174 68.3755 15.5466 68.7576 15.7868C69.0961 15.9942 69.4236 16.2344 69.8168 16.3108C70.0023 16.3436 70.1442 16.1034 70.057 15.9506C69.8929 15.6449 69.6091 15.4266 69.3474 15.2082C68.9978 14.9135 68.6489 14.5751 68.2335 14.3567C67.841 14.1493 67.2948 14.6296 67.6659 15.0008Z" fill="#666666"/>
<path d="M55.6124 115.383C55.8307 115.503 56.1255 115.557 56.3656 115.579C57.2826 115.655 58.1997 115.699 59.1167 115.743C61.0053 115.819 62.8939 115.841 64.7824 115.841C68.5597 115.841 72.3478 115.732 76.1249 115.787C76.7473 115.797 77.3586 115.863 77.9809 115.819C85.8951 115.394 90.4696 115.273 96.408 114.935C103.952 114.499 111.91 112.784 95.1197 112.097C91.5281 111.944 87.7511 112.02 84.1484 111.9C80.9612 111.791 77.7732 111.791 74.5853 111.867C71.8127 111.933 69.0401 112.042 66.2669 112.151C63.3742 112.26 60.0009 111.747 57.37 113.385C57.1407 113.527 56.9115 113.691 56.6713 113.821C56.3438 113.996 55.9836 114.105 55.6997 114.368C55.1539 114.881 55.2849 115.208 55.6124 115.383Z" fill="url(#paint2_linear_456_3406)"/>
<path opacity="0.56" d="M55.6146 115.383C55.8329 115.503 56.1277 115.557 56.3678 115.579C57.2848 115.655 58.2019 115.699 59.1189 115.743C61.0075 115.819 62.8961 115.841 64.7846 115.841C68.5616 115.841 72.3498 115.732 76.1269 115.787C76.7492 115.797 77.3605 115.863 77.9828 115.819C85.8976 115.394 90.4715 115.273 96.4106 114.935C103.954 114.499 111.912 112.784 95.1223 112.097C91.5307 111.944 87.7536 112.02 84.151 111.9C80.9631 111.791 77.7752 111.791 74.5879 111.867C71.8146 111.933 69.0421 112.042 66.2695 112.151C63.3764 112.26 60.0031 111.747 57.3722 113.385C57.1429 113.527 56.9137 113.691 56.6735 113.821C56.346 113.996 55.9857 114.105 55.7019 114.368C55.1561 114.881 55.2871 115.208 55.6146 115.383Z" fill="url(#paint3_linear_456_3406)"/>
<path d="M61.8459 20.6996C61.8459 20.6996 57.0316 21.7476 50.7764 41.7579C50.7764 41.7579 49.7501 48.7992 57.8613 58.9845V53.275C57.8613 51.1244 56.595 48.5044 56.191 46.3648C55.5033 42.7186 56.8569 40.8955 58.4508 37.7514C59.597 35.4917 60.7433 33.221 61.8459 30.9394C61.8459 30.9504 64.2039 24.3894 61.8459 20.6996Z" fill="#F26622"/>
<path d="M39.4978 20.2865C38.7336 20.6249 38.6572 21.5637 39.345 22.0659C43.9082 25.4064 47.7945 28.4303 51.1022 31.1922C51.5062 31.5307 51.9865 31.88 52.5324 31.7271C52.8817 31.6289 53.1764 31.3451 53.4384 31.0722L56.899 27.5679C57.2265 27.2295 57.2592 26.6836 56.9645 26.367C54.1371 23.4195 50.6874 20.3738 46.4845 17.2188C46.1133 16.9459 45.6221 16.9132 45.2618 17.1534C43.537 18.2996 41.6047 19.3476 39.4978 20.2865Z" fill="#666666"/>
<path d="M42.2733 21.1067C41.7712 21.3469 41.7165 21.9801 42.1642 22.3185C45.2099 24.6437 47.9063 26.8271 50.2971 28.8904C50.5918 29.1523 50.9521 29.4253 51.356 29.327C51.618 29.2615 51.8364 29.065 52.0329 28.8685L54.6419 26.3468C54.893 26.1066 54.9149 25.6918 54.6856 25.4625C52.5241 23.2792 49.9805 21.0958 47.0002 18.9234C46.7491 18.7378 46.4108 18.7269 46.1597 18.9015C44.9698 19.7094 43.6706 20.4518 42.2733 21.1067Z" fill="white"/>
<path d="M46.4737 19.7927C46.3863 19.7382 46.2881 19.6727 46.1789 19.6836C46.0807 19.6836 45.9933 19.7382 45.9169 19.7927C45.7422 19.9019 45.5676 20.022 45.4038 20.153C45.2401 20.2949 45.0873 20.4478 44.9126 20.5788C44.7816 20.6879 44.6397 20.7752 44.4978 20.8626C44.1811 21.07 43.8646 21.2665 43.537 21.4739C43.3406 21.594 43.1877 21.6595 43.0567 21.8123C43.0131 21.8669 42.9694 21.9324 42.9258 22.0197C43.1441 22.249 43.3842 22.4564 43.6353 22.653C43.7773 22.7621 43.9629 23.0241 44.1593 22.9804C44.2794 22.9586 44.3995 22.8057 44.4868 22.7184C44.5086 22.6966 44.5305 22.6857 44.5523 22.6638C44.596 22.8494 44.6396 23.035 44.6833 23.2097C44.7488 22.9804 44.7815 22.7403 44.8034 22.5001C44.8034 22.4783 44.8034 22.4455 44.8144 22.4237C44.8471 22.3909 44.8907 22.3582 44.9235 22.3254C45.3383 21.9652 45.7532 21.594 46.1571 21.2338C46.3208 21.0919 46.4627 20.9718 46.6483 20.8626C46.7138 20.8298 47.1832 20.3604 47.1941 20.3604C46.9649 20.1748 46.7356 19.9565 46.4737 19.7927Z" fill="#CCCCCC"/>
<path d="M50.7974 22.915C50.6773 22.9041 50.5572 22.8714 50.448 22.8386C50.5791 22.6858 50.721 22.5439 50.852 22.3801C50.6664 22.26 50.4699 22.1291 50.2843 22.0089C50.2624 21.9871 50.2297 21.9762 50.197 21.9762C50.1315 21.9762 50.0769 22.0307 50.0332 22.0854C49.6948 22.4674 49.2145 22.784 48.8761 23.1662C48.6031 23.4827 48.5268 23.57 48.1338 24.0395C48.2865 24.1486 48.6577 24.498 48.8106 24.6071C48.8542 24.4652 48.9743 24.356 49.0835 24.2578C49.4765 23.9085 49.8476 23.5263 50.2079 23.1333C50.2952 23.1333 50.3826 23.1225 50.4699 23.1006C50.59 23.057 50.6991 23.0024 50.7974 22.915Z" fill="#B8CDD8"/>
<path d="M47.3689 22.2062C47.2488 22.108 47.1286 22.0206 47.0086 21.9224C46.9867 21.9115 46.9759 21.8896 46.954 21.8896C46.9212 21.8896 46.8885 21.9115 46.8667 21.9333C46.2444 22.4246 45.6004 23.014 44.989 23.538C45.0872 23.6254 45.4366 23.8983 45.5349 23.9747C45.5567 23.9965 45.5894 24.0184 45.6222 24.0184C45.6767 24.0184 45.7205 23.9747 45.7532 23.931C45.775 23.8983 45.7968 23.8765 45.8296 23.8546C45.8732 24.0184 45.906 24.1821 45.9497 24.3459C46.0152 24.1166 46.0479 23.8874 46.0697 23.6472C46.0697 23.6254 46.0698 23.6036 46.0807 23.5708C46.4955 23.0905 46.9213 22.632 47.3689 22.2062Z" fill="#CCCCCC"/>
<path d="M50.2107 25.4265C50.0688 25.3064 49.9269 25.1863 49.785 25.0553C49.7632 25.0444 49.7412 25.0226 49.7194 25.0226C49.6976 25.0226 49.6757 25.0444 49.6649 25.0553C49.3701 25.3064 49.0753 25.5575 48.7806 25.8195C48.5623 26.0051 48.344 26.2016 48.2021 26.4636C48.3549 26.6164 48.5077 26.7474 48.6715 26.8675C48.6933 26.8893 48.7151 26.9003 48.7479 26.9003C48.7806 26.9003 48.8134 26.8893 48.8352 26.8675C48.9116 26.8238 48.9771 26.7583 49.0426 26.6928C49.0972 26.7693 49.1409 26.8348 49.1954 26.9112C49.2064 26.933 49.2282 26.9548 49.25 26.9439C49.2609 26.7801 49.2719 26.6164 49.2828 26.4527C49.6103 26.1361 49.9268 25.7977 50.2107 25.4265Z" fill="#CCCCCC"/>
<path d="M53.2234 25.1753C53.3544 25.0006 53.4854 24.8151 53.6055 24.6404C53.3872 24.4984 53.1579 24.3675 52.9396 24.2255C52.9177 24.2147 52.8959 24.2037 52.8741 24.2037C52.8522 24.2037 52.8195 24.2255 52.7977 24.2474C52.0444 24.8914 51.5313 25.8521 50.8217 26.5726C50.7999 26.5945 50.7781 26.6163 50.7781 26.6491C50.7781 26.6709 50.789 26.6928 50.7999 26.7036C50.9746 26.9766 51.1711 27.2277 51.3785 27.4569C51.7824 27.0311 52.1754 26.5945 52.5575 26.1469C52.6994 25.9832 52.8523 25.7976 52.9178 25.5792C53.0815 25.601 53.2343 25.601 53.3981 25.5683C53.4199 25.4919 53.3544 25.4373 53.2889 25.4046C53.2234 25.3718 53.1579 25.3281 53.1797 25.2408C53.1907 25.219 53.2015 25.1972 53.2234 25.1753Z" fill="#B8CDD8"/>
<path d="M81.2554 84.9765C80.8186 77.0506 81.7359 68.9613 81.6486 60.9922C81.9325 58.2303 81.4735 55.4139 80.2946 52.8157C80.2184 52.6519 80.1422 52.4882 80.0003 52.368C79.5524 51.986 78.7771 52.1934 78.1769 52.3899C72.4344 54.344 65.6667 53.8855 60.4373 51.1235C59.4002 52.4227 59.1055 54.0165 58.8545 55.5667C58.4396 58.0557 57.992 60.5447 57.8829 63.0446V63.0555C57.861 63.5904 57.85 64.1363 57.861 64.6712C57.9374 67.7935 58.6579 70.861 59.2365 73.9395C59.6077 75.9478 59.9351 77.9679 59.9679 79.9983C59.9897 81.6577 59.7059 83.1856 60.1644 84.8125C61.2779 88.8187 61.2779 93.1966 61.7473 97.2901C62.2495 101.679 62.7408 106.067 63.1556 110.467C63.1665 110.641 63.1883 110.816 63.1993 110.991C63.4722 111.046 67.5552 111.831 67.5552 110.958C67.8827 102.432 68.2101 93.8952 68.5376 85.3691C68.6795 81.7775 68.3631 69.6495 69.4652 66.2324C69.9242 66.2649 70.3714 66.3085 70.8297 66.3417C73.3191 77.6294 76.2773 97.3995 78.7771 108.687C78.9958 109.681 79.2686 110.751 80.0543 111.395C80.8518 112.039 82.325 111.853 82.5652 110.859C81.812 102.225 81.7248 93.6003 81.2554 84.9765Z" fill="#858585"/>
<path d="M73.9649 7.79836C73.9649 4.86177 71.4104 2.48193 68.2557 2.48193C65.1003 2.48193 62.5458 4.86177 62.5458 7.79836C62.5458 8.2896 62.6223 8.75903 62.7533 9.20659C62.7533 9.3267 62.7642 9.43587 62.7642 9.56685C62.7424 10.6258 62.797 11.6956 63.0044 12.7327C63.4083 14.7632 64.4563 16.6518 66.4433 17.809C67.1093 18.1911 67.8625 18.4858 68.6593 18.4858C69.7289 18.4749 70.7008 17.9291 71.4429 17.2523C73.8881 15.0034 74.0957 11.6301 73.9213 8.45333C73.9428 8.23505 73.9649 8.02764 73.9649 7.79836Z" fill="#C8AE9A"/>
<path d="M67.8403 110.993C66.6607 110.906 65.4603 110.949 64.2921 111.124C63.386 111.724 62.4035 112.215 61.3555 112.586C61.0498 112.696 60.7332 112.804 60.5039 113.012C60.2747 113.22 60.1874 113.58 60.3948 113.798C60.5804 113.995 60.8969 114.017 61.1917 114.017C63.3859 114.038 65.569 113.875 67.731 113.525C67.8618 113.504 67.9927 113.482 68.091 113.394C68.1678 113.329 68.2003 113.241 68.2329 113.143C68.4405 112.433 68.2986 111.626 67.8403 110.993Z" fill="#3D322B"/>
<path d="M81.9253 111.57C80.8668 111.679 79.8187 111.908 78.8142 112.236C78.1372 112.902 77.3625 113.491 76.511 113.982C76.2597 114.124 76.0084 114.266 75.845 114.484C75.692 114.703 75.6809 115.03 75.9101 115.194C76.1067 115.336 76.4016 115.303 76.6529 115.259C78.585 114.942 80.4846 114.452 82.3185 113.807C82.4279 113.764 82.5476 113.72 82.6134 113.644C82.6681 113.578 82.6785 113.491 82.6896 113.403C82.7442 112.749 82.4604 112.06 81.9253 111.57Z" fill="#3D322B"/>
<path d="M81.8869 57.5569C81.8647 52.0986 81.8433 46.6402 81.8322 41.1819C81.8101 36.5859 80.773 31.7062 80.0856 27.1539C79.7145 24.6539 79.2666 23.7806 78.1313 21.5536C77.9679 21.2371 77.9457 21.0187 76.4393 20.5383C76.1119 20.4292 75.3366 19.9926 74.9329 20.058C72.9676 20.3856 70.9703 19.6432 69.016 19.9816C66.942 20.3309 63.4593 19.283 61.8436 20.7021C59.6603 22.6234 59.5075 27.1757 59.1581 30.156C58.6887 34.1733 57.5752 38.2562 57.3787 42.2953C57.204 45.8433 57.1167 49.4021 57.0512 52.9501C57.0184 54.8059 56.3416 61.2468 58.0009 62.4803C58.9725 63.2009 61.5816 63.4956 64.2561 63.5939C64.3544 63.5939 64.4527 63.6047 64.5509 63.6047C64.5728 63.6047 64.6055 63.6047 64.6273 63.6047C65.7187 63.6375 66.8105 63.6266 67.8039 63.6047C69.2667 63.572 70.5003 63.5065 71.1663 63.441C74.2884 63.1572 77.3781 62.524 80.4456 61.8144C80.9918 61.6943 81.592 61.5197 81.8869 61.0284C82.0939 60.6791 81.8869 57.9827 81.8869 57.5569Z" fill="#F26622"/>
<path d="M71.3427 24.9338C71.4625 24.0823 72.0191 23.4055 72.7508 22.9688C72.9142 22.1392 73.0672 21.3095 73.2312 20.4799C73.2527 20.4471 73.2748 20.4252 73.2853 20.3925C73.3399 20.2943 73.3621 20.1851 73.351 20.0759C73.1544 20.0322 72.9578 19.9995 72.7723 19.9667C70.3161 20.458 67.7941 20.4689 65.2943 19.8248C65.3275 20.0214 65.3379 20.2288 65.3164 20.4362C63.9845 34.7698 63.4387 49.158 63.9736 63.5462C64.3339 63.4261 64.7268 63.3716 65.1745 63.3716C66.539 63.3934 67.9582 63.5681 69.3773 63.6882C66.0149 51.0357 69.5518 37.761 71.3427 24.9338ZM72.4559 21.2877C72.5216 21.2877 72.5757 21.2767 72.6414 21.2767C72.5431 21.5278 72.4448 21.7789 72.3576 22.03C72.3797 21.7899 72.4233 21.5388 72.4559 21.2877Z" fill="#E8E8E8"/>
<path d="M75.7089 5.32993C75.2395 3.35401 73.8204 1.81474 72.0191 0.919577C69.2022 -0.477763 64.4427 -0.586927 63.0017 2.7645C60.1852 3.747 61.6372 8.19012 64.4428 7.17482C64.4755 7.16395 64.5082 7.15301 64.5409 7.14208C65.9928 7.85166 68.0233 8.09182 69.8135 8.11369C70.4795 9.7512 71.8439 11.1485 73.8204 10.3516C75.72 9.57654 76.1347 7.12027 75.7089 5.32993Z" fill="#382717"/>
<path d="M50.1657 28.9421C49.7508 28.7238 49.3032 28.5819 48.8338 28.5055C48.3862 28.4291 47.8185 28.4946 47.6221 28.9203C47.4365 29.3461 47.764 29.7936 48.0915 30.0994C49.6198 31.5076 51.6176 32.239 53.5717 32.9486C53.3424 33.3306 53.6699 33.1887 54.0848 31.3438C53.2441 31.1473 52.7529 30.2958 52.1088 29.7282C51.4211 29.1277 50.8098 28.2981 49.9037 28.1453C49.8709 28.2653 49.8273 28.3745 49.7945 28.4946C49.9255 28.6365 50.0456 28.7894 50.1657 28.9421Z" fill="#C8AE9A"/>
<path d="M54.3586 31.4106C53.5836 31.0284 52.5355 30.6791 52.1207 31.2031C51.695 31.749 52.4155 32.6114 53.0705 33.2009C54.5006 34.5 55.9415 35.7881 57.3716 37.0873C60.1663 39.609 63.0265 42.1853 66.4218 43.9211C67.8078 44.6307 69.4672 45.2093 70.6461 44.6962C71.3778 44.3796 71.771 43.7027 72.0874 43.0259C73.6706 39.6854 69.3584 38.7138 66.2252 37.1855C62.2733 35.2641 58.3105 33.3319 54.3586 31.4106Z" fill="#736357"/>
<path d="M78.9216 24.4538C78.9326 23.4058 78.8558 22.3032 78.3428 21.419C76.52 18.2968 72.2515 23.2857 71.3127 25.1197C69.402 28.8532 67.8956 36.9207 66.8697 40.7306C66.662 41.4948 66.4543 42.3026 66.662 43.0449C67.022 44.3549 69.5661 45.785 70.7776 44.9663C71.8583 44.2349 75.69 36.9534 76.203 35.7307C77.6879 32.15 78.8558 28.351 78.9216 24.4538Z" fill="#F26622"/>
<path d="M67.3072 16.3243C67.4595 16.3243 67.6235 16.3243 67.7544 16.237C67.8852 16.1605 67.9725 15.975 67.8852 15.844C67.4159 15.8331 66.9576 15.8331 66.4882 15.8221C66.3463 15.8221 66.1822 15.8221 66.0624 15.9094C65.3639 16.3898 67.1652 16.3243 67.3072 16.3243Z" fill="#382717"/>
<defs>
<linearGradient id="paint0_linear_456_3406" x1="0.226489" y1="114.035" x2="52.081" y2="118.642" gradientUnits="userSpaceOnUse">
<stop stop-color="#4D4D4D"/>
<stop offset="1"/>
</linearGradient>
<linearGradient id="paint1_linear_456_3406" x1="0.229663" y1="114.035" x2="52.0842" y2="118.642" gradientUnits="userSpaceOnUse">
<stop/>
<stop offset="1"/>
</linearGradient>
<linearGradient id="paint2_linear_456_3406" x1="55.5103" y1="112.414" x2="104.9" y2="115.825" gradientUnits="userSpaceOnUse">
<stop stop-color="#4D4D4D"/>
<stop offset="1"/>
</linearGradient>
<linearGradient id="paint3_linear_456_3406" x1="55.5125" y1="112.414" x2="104.903" y2="115.825" gradientUnits="userSpaceOnUse">
<stop/>
<stop offset="1"/>
</linearGradient>
</defs>
</svg>
