<svg width="42" height="118" viewBox="0 0 42 118" fill="none" xmlns="http://www.w3.org/2000/svg">
<path d="M38.8289 115.632C39.5001 115.565 40.3585 115.343 40.4465 114.654C40.5456 113.954 39.7312 113.497 39.0489 113.375C38.1795 113.22 37.2772 113.253 36.3858 113.275C27.0977 113.576 17.7876 113.598 8.49955 113.342C6.89286 113.297 5.28613 113.242 3.69043 113.43C2.83206 113.531 0.477019 113.664 0.102857 114.642C-0.76652 116.899 4.13062 117.344 5.19809 117.344C12.3622 117.322 19.5374 117.077 26.6905 116.621C30.7293 116.355 34.7791 116.032 38.8289 115.632Z" fill="url(#paint0_linear_456_3327)"/>
<path opacity="0.22" d="M38.832 115.632C39.5034 115.565 40.3617 115.343 40.4497 114.654C40.5488 113.954 39.7344 113.497 39.0521 113.375C38.1827 113.22 37.2804 113.253 36.389 113.275C27.101 113.576 17.7908 113.598 8.5027 113.342C6.89601 113.297 5.28934 113.242 3.69364 113.43C2.83526 113.531 0.480225 113.664 0.106061 114.642C-0.763317 116.899 4.13382 117.344 5.20129 117.344C12.3654 117.322 19.5406 117.077 26.6937 116.621C30.7325 116.355 34.7823 116.032 38.832 115.632Z" fill="url(#paint1_linear_456_3327)"/>
<path d="M29.3769 31.7113C29.0688 31.8336 28.7276 31.8447 28.3974 31.8447C24.6888 31.867 20.9692 31.0554 17.6017 29.4769C16.2811 28.8655 14.8505 27.8539 14.8615 26.3864C14.8615 26.1307 14.9166 25.8751 15.0376 25.6528C15.5328 24.7745 16.7984 24.8968 17.7668 25.1414C21.0462 25.9418 24.3366 26.7644 27.506 27.9317C27.5941 27.6315 27.7812 27.3536 27.9683 27.0979C30.1142 24.152 31.7759 20.8504 34.252 18.1824C34.6591 17.7377 35.1214 17.3041 35.6936 17.1485C36.2659 16.9928 36.9922 17.2263 37.2013 17.7932C37.3664 18.2601 37.1573 18.7604 36.9483 19.2051C36.0128 21.2061 35.0773 23.2182 34.1419 25.2192C33.2616 27.0979 32.3151 29.0544 30.7084 30.3217C30.3343 30.8664 29.9932 31.4668 29.3769 31.7113Z" fill="#F2E7D6"/>
<path d="M20.9025 46.1215C20.1542 48.3671 20.1211 50.8795 20.7924 53.1584C20.8585 53.3808 20.9245 53.603 20.9025 53.8254C20.8474 54.2701 20.4623 54.5591 20.0881 54.7592C18.2283 55.7708 16.0714 55.8709 13.9914 55.882C10.6459 55.8931 7.28949 55.693 3.95505 55.2928C3.56987 54.8148 3.83405 54.1033 4.01012 53.503C4.53836 51.7132 4.14212 49.7678 3.95505 47.9002C3.93304 47.689 3.92208 47.4556 4.01012 47.2666C4.09816 47.0887 4.26323 46.9775 4.4173 46.8774C6.7723 45.3878 9.50151 44.5763 12.2417 44.5763C13.3532 44.5763 14.4647 44.7097 15.5652 44.8765C17.381 45.1766 19.1527 45.5879 20.9025 46.1215Z" fill="#F2E7D6"/>
<path d="M14.3712 112.166C15.8679 112.044 17.3755 112.111 18.8611 112.355C20.0056 113.211 21.2602 113.922 22.5808 114.467C22.9659 114.622 23.3731 114.778 23.6482 115.079C23.9344 115.379 24.0443 115.89 23.7803 116.212C23.5491 116.491 23.1421 116.524 22.7789 116.524C20.0167 116.557 17.2435 116.312 14.5143 115.812C14.3492 115.779 14.1731 115.745 14.063 115.623C13.964 115.535 13.92 115.401 13.887 115.267C13.6118 114.234 13.799 113.078 14.3712 112.166Z" fill="#333333"/>
<path d="M1.58001 111.21C2.9226 111.366 4.24311 111.688 5.50866 112.166C6.36704 113.122 7.34652 113.978 8.42494 114.679C8.73311 114.89 9.06327 115.09 9.26133 115.413C9.45945 115.735 9.47034 116.201 9.18422 116.435C8.9311 116.646 8.568 116.602 8.24887 116.535C5.80578 116.068 3.39572 115.379 1.08471 114.457C0.941646 114.401 0.798623 114.334 0.710581 114.212C0.644555 114.112 0.622594 113.989 0.622594 113.867C0.556565 112.911 0.919721 111.91 1.58001 111.21Z" fill="#333333"/>
<path d="M2.78989 84.9931C3.16406 76.7331 2.38265 68.3067 2.44868 60.0027C2.20657 57.1235 2.6028 54.1887 3.60424 51.4762C3.67026 51.3095 3.73627 51.1316 3.85733 51.0093C4.24249 50.6092 4.90282 50.8204 5.40904 51.0316C10.2952 53.066 16.0727 52.5879 20.5297 49.7087C21.41 51.0649 21.6631 52.7213 21.8832 54.3332C22.2354 56.9345 22.6205 59.5247 22.7085 62.1261V62.1372C22.7306 62.693 22.7416 63.26 22.7306 63.8158C22.6646 67.0618 22.0482 70.2743 21.564 73.4762C21.2449 75.5664 20.9698 77.6672 20.9478 79.7905C20.9258 81.5247 21.1679 83.1031 20.7827 84.8042C19.8363 88.9839 19.8363 93.5309 19.4402 97.7994C19.011 102.368 18.5928 106.948 18.2407 111.517C18.2297 111.696 18.2077 111.885 18.1966 112.062C17.9655 112.129 14.477 112.929 14.477 112.018C14.2018 103.135 13.9157 94.2422 13.6406 85.3597C13.5195 81.6248 13.3986 77.823 12.4632 74.2657C12.078 74.3101 11.6928 74.3433 11.3076 74.3877C9.18369 86.1493 7.05968 97.9108 4.93577 109.672C4.74869 110.706 4.51761 111.829 3.84631 112.496C3.17502 113.163 1.90953 112.974 1.71144 111.94C2.31671 102.969 2.39372 93.9863 2.78989 84.9931Z" fill="#EBEFEB"/>
<path d="M17.6911 17.9923C17.0968 18.3147 16.4694 18.6037 15.7982 18.8261C13.146 19.6709 9.92165 19.2818 7.73167 17.8367C5.95989 18.3036 4.69436 19.5375 4.04508 20.916C3.3958 22.2833 3.27469 23.773 3.16464 25.2293C2.64742 32.0549 2.13015 38.8806 1.61293 45.7174C1.59092 46.0619 1.56891 46.4177 1.75599 46.7289C2.15217 47.3515 3.19774 47.4738 4.07813 47.5182C10.0757 47.785 16.0953 47.6739 22.0709 47.1959C22.3131 47.1737 22.5772 47.1514 22.7863 47.0513C23.2485 46.829 23.3145 46.3287 23.3145 45.9063C23.4576 39.4252 23.0283 32.922 22.0379 26.4855C21.6748 24.1287 21.2235 21.7386 19.936 19.582C19.6718 19.1485 19.3527 18.7038 18.8465 18.4259C18.3403 18.148 18.1973 17.7144 17.6911 17.9923Z" fill="#213355"/>
<path d="M7.05974 8.63212C7.13679 7.85392 7.26882 7.07578 7.49996 6.33093C8.3143 3.72963 11.3405 0.0500039 14.4329 1.39512C15.1482 1.70639 15.7425 2.2511 16.3038 2.80693C16.8761 3.37388 17.4262 3.97418 17.8884 4.64117C18.7578 5.89736 19.3081 7.47592 19.3191 9.02112C19.3301 10.4552 18.8239 11.9337 18.3396 13.2677C17.7014 15.0353 16.799 16.8695 15.1482 17.7366C12.9473 18.8927 10.0751 17.8144 8.5894 15.8135C7.11474 13.8013 6.80663 11.1223 7.05974 8.63212Z" fill="#F2E7D6"/>
<path d="M31.4258 23.8951C31.3598 24.1286 31.2938 24.3842 31.4369 24.6288C31.6019 24.8956 31.976 25.0623 32.3172 25.1957C33.2305 25.5514 34.144 25.985 35.0684 26.2518C35.6626 25.1068 35.9378 23.7506 36.3229 22.5499C36.7301 21.2604 37.1153 19.9709 37.4895 18.6925C37.8417 17.4585 38.1717 16.2135 38.4908 14.9795C38.777 13.8345 39.2392 12.645 39.3052 11.4555C38.854 11.2666 37.9736 11.5333 37.5224 11.5889C36.8401 11.6778 36.1578 11.7557 35.4645 11.8446C35.2774 11.8668 35.0794 11.889 34.9363 11.978C34.7492 12.1003 34.6831 12.3004 34.6282 12.5005C33.5717 16.2245 32.5043 20.0265 31.4258 23.8951Z" fill="#666666"/>
<path d="M32.1217 23.4501C32.0666 23.6502 32.0116 23.8725 32.0996 24.0727C32.1987 24.2949 32.4408 24.4173 32.6719 24.5173C33.2772 24.7841 33.8825 25.1176 34.4877 25.3177C34.9389 24.3172 35.1919 23.1499 35.5001 22.0938C35.8412 20.96 36.1604 19.8261 36.4795 18.6811C36.7877 17.5693 37.0738 16.4688 37.349 15.346C37.6021 14.3122 37.9872 13.2228 38.0972 12.1333C37.7891 11.9777 37.1617 12.2668 36.8316 12.3445C36.3474 12.4557 35.8633 12.5669 35.379 12.678C35.247 12.7114 35.1039 12.7447 35.0049 12.8337C34.8729 12.9449 34.8179 13.1449 34.7628 13.3228C33.8935 16.7022 33.002 20.0706 32.1217 23.4501Z" fill="#F2F2F2"/>
<path opacity="0.56" d="M34.6083 15.8375C35.3787 16.071 36.2039 16.071 37.0073 15.8375C36.4681 18.3832 35.8079 20.9067 35.0155 23.3746C34.2452 22.9411 33.4857 22.5075 32.7154 22.074C33.0125 19.9952 33.5629 17.9385 34.3222 16.0043C34.3442 15.9487 34.3772 15.882 34.4212 15.8486C34.4872 15.8041 34.5533 15.8264 34.6083 15.8375Z" fill="#FBB03B"/>
<path d="M34.5613 17.8716C34.6053 17.716 34.6384 17.5492 34.7594 17.3602C34.8255 17.2602 34.9134 17.149 34.9794 17.0378C35.0565 16.9267 35.1115 16.8044 35.1005 16.7599C35.0785 16.7154 34.9685 16.7599 34.8584 16.8711C34.7704 16.96 34.7263 17.049 34.6603 17.1379C34.6053 17.2268 34.4953 17.3269 34.4623 17.3158C34.4733 17.2713 34.4843 17.2379 34.4733 17.2157C34.4623 17.1935 34.4182 17.2157 34.3741 17.2602C34.3521 17.2824 34.3302 17.3157 34.3192 17.338C34.2532 17.4492 34.2092 17.5492 34.2092 17.6048C34.2092 17.6714 34.2641 17.6937 34.2972 17.7381C34.3302 17.7826 34.3522 17.8827 34.2641 18.005C34.2091 18.0828 34.1322 18.1495 34.0661 18.1717C34.0111 18.1828 33.978 18.1495 33.989 18.0939C34 18.0494 34.022 18.005 34.0331 17.9605C34.0441 17.9161 34.044 17.8827 34.011 17.8938C33.978 17.9049 33.934 17.9494 33.9121 17.9939C33.89 18.0383 33.879 18.0717 33.868 18.1161C33.8349 18.2273 33.78 18.3385 33.7139 18.4385C33.7249 18.4941 33.7799 18.4941 33.8349 18.4941C33.901 18.483 33.967 18.4719 34.022 18.5052C34.0771 18.5385 34.0991 18.6497 34.0331 18.7498C34.1872 18.7275 34.3743 18.7165 34.5833 18.7387C34.5393 18.572 34.7704 18.3496 35.0346 18.194C35.3427 18.0161 35.7938 17.8271 36.19 17.5159C36.7732 17.049 36.8613 16.5931 36.3661 16.6265C36.256 16.6376 36.124 16.671 35.9809 16.7377C35.6508 16.8933 35.3536 17.1823 35.1995 17.3825C35.0564 17.5715 34.9684 17.7493 34.8144 17.9161C34.7704 17.9716 34.7043 18.0161 34.6493 18.0494C34.5503 18.105 34.5393 17.9828 34.5613 17.8716Z" fill="#8CC674"/>
<path d="M33.5258 20.105C33.5258 20.0828 33.5258 20.0606 33.5258 20.0273C33.6028 19.5159 33.6689 19.0823 33.724 18.7044C34.0651 18.6043 34.6373 18.5043 35.7818 18.3597C35.4847 19.3936 35.1216 20.4719 34.7034 21.5169C34.1202 20.8165 33.7679 20.4052 33.5478 20.1384C33.5368 20.1384 33.5258 20.1273 33.5258 20.105Z" fill="#8EABE2"/>
<path d="M33.9226 18.0603C33.9776 17.9936 34.0106 17.9158 34.0106 17.8602C34.0106 17.8157 33.9776 17.7935 33.9336 17.8269C33.9226 17.8713 33.9115 17.9047 33.9005 17.9491C33.9005 17.9157 33.8674 17.9269 33.8344 17.9602C33.8235 17.9825 33.8124 18.0047 33.8235 18.0159C33.8235 18.0269 33.8345 18.0269 33.8455 18.0269C33.8345 18.0269 33.8125 18.0492 33.7905 18.0714C33.7685 18.0937 33.7574 18.127 33.7574 18.1492C33.7905 18.1382 33.8235 18.127 33.8565 18.1159C33.8675 18.1159 33.8896 18.1047 33.9005 18.0937C33.9005 18.0825 33.9116 18.0714 33.9226 18.0603Z" fill="#FF8CAA"/>
<path d="M34.9903 18.571C35.0123 18.5043 35.1224 18.4933 35.1224 18.56C35.0783 19.038 34.9573 19.5716 34.8362 20.1163C34.8142 20.2163 34.6491 20.1274 34.6711 20.0274C34.7702 19.516 34.8472 19.0269 34.9903 18.571Z" fill="#A1B5D6"/>
<path d="M34.4059 18.684C34.4169 18.6396 34.494 18.6285 34.483 18.673C34.417 18.9953 34.417 19.3511 34.329 19.7179C34.3069 19.7958 34.2078 19.7513 34.2188 19.6735C34.2958 19.3289 34.3068 18.9842 34.4059 18.684Z" fill="#A1B5D6"/>
<path d="M34.1087 18.7281C34.0647 18.9838 34.0097 19.2617 33.9657 19.5619C33.9546 19.6286 33.8887 19.6175 33.8997 19.5508C33.9437 19.2617 33.9987 18.9838 34.0648 18.717C34.0648 18.6948 34.1087 18.6948 34.1087 18.7281Z" fill="#A1B5D6"/>
<path d="M33.9101 18.7491C33.8771 18.9826 33.844 19.2272 33.811 19.494C33.8 19.5496 33.745 19.5496 33.7561 19.494C33.7891 19.2383 33.833 18.9937 33.8771 18.7714C33.866 18.7381 33.9101 18.7158 33.9101 18.7491Z" fill="#A1B5D6"/>
<path d="M37.6199 6.642C37.7409 7.20893 37.8509 7.76478 37.961 8.33172C38.005 8.5652 37.6419 8.66523 37.5979 8.43175C37.4988 7.86482 37.3998 7.29789 37.3007 6.71982C37.2787 6.51972 37.5759 6.43078 37.6199 6.642Z" fill="#4D4D4D"/>
<path d="M39.019 7.68934C39.063 7.55596 39.096 7.42251 39.14 7.28913C39.14 7.27799 39.151 7.26692 39.1621 7.24465C39.1951 7.10013 39.217 6.95561 39.228 6.79996C39.239 6.59988 39.5252 6.59988 39.5252 6.79996C39.5252 6.96675 39.5141 7.12234 39.4811 7.28913C39.4921 7.31134 39.4921 7.34475 39.4811 7.37809C39.4371 7.51147 39.3931 7.64485 39.349 7.77823C39.272 7.98951 38.9529 7.91168 39.019 7.68934Z" fill="#4D4D4D"/>
<path d="M39.909 8.46681C40.5143 8.30008 41.1635 8.28895 41.7798 8.37791C41.9779 8.40012 41.9889 8.71136 41.7798 8.68915C41.1745 8.64467 40.6023 8.7225 40.008 8.82253C39.7769 8.86701 39.6779 8.5335 39.909 8.46681Z" fill="#4D4D4D"/>
<path d="M7.46792 26.3754C7.64399 26.1975 7.86403 26.053 8.10613 25.9863C9.07455 25.7195 9.878 26.7089 10.3952 27.576C12.145 30.4886 13.9057 33.4234 15.3253 36.5027C15.6005 36.3471 15.9306 36.2915 16.2387 36.247C19.8153 35.7022 22.7976 35.3243 26.7484 34.8908C26.8804 34.8797 27.0345 34.8463 27.1775 34.8018C28.0799 34.4684 29.0263 33.9348 29.5765 33.4679C29.7306 33.3344 29.8957 33.1899 30.0828 33.1121C30.2699 33.0343 30.5119 33.012 30.677 33.1344C30.8421 33.2566 30.8972 33.5346 30.7431 33.6791C31.2053 33.5346 31.6674 33.4011 32.1516 33.4456C32.6248 33.4901 33.1201 33.7568 33.2741 34.2127C33.4832 34.8241 33.0321 35.4688 32.5149 35.8579C31.3594 36.7361 29.4444 37.292 27.9148 37.3031C27.1775 37.6254 26.3521 37.8367 25.8459 37.9812C23.5899 38.6704 21.3339 39.3597 19.0889 40.049C18.0215 40.3713 16.943 40.7048 15.8205 40.6825C15.2152 40.6714 14.6321 40.5269 14.0818 40.2824C10.6923 38.7927 8.31534 33.4456 7.23686 30.4886C6.73063 29.1434 6.42244 27.3982 7.46792 26.3754Z" fill="#F2E7D6"/>
<path d="M4.28407 56.3251C4.3501 56.1584 4.6142 56.2251 4.54817 56.4029C4.36109 56.881 4.2511 57.3701 4.19608 57.8815C4.17407 58.0704 3.87692 58.0704 3.89893 57.8815C3.95395 57.3368 4.07498 56.8253 4.28407 56.3251Z" fill="#CED1CE"/>
<path d="M3.49682 61.8058C3.51883 61.6279 3.78295 61.6279 3.77194 61.8058C3.73893 62.1615 3.70595 62.5172 3.67293 62.873C3.66193 63.0509 3.3758 63.0509 3.39781 62.873C3.43083 62.5172 3.46381 62.1615 3.49682 61.8058Z" fill="#CED1CE"/>
<path d="M3.55939 67.5995C3.55939 67.4105 3.84552 67.4105 3.84552 67.5995C3.84552 67.9886 3.84552 68.3771 3.84552 68.7556C3.84552 68.9445 3.55939 68.9445 3.55939 68.7556C3.55939 68.3665 3.55939 67.9886 3.55939 67.5995Z" fill="#CED1CE"/>
<path d="M3.38552 74.1113C3.38552 73.9336 3.66063 73.9336 3.66063 74.1113C3.66063 74.5223 3.66063 74.9452 3.66063 75.3562C3.66063 75.5452 3.3745 75.5452 3.3745 75.3562C3.3855 74.9452 3.38552 74.5223 3.38552 74.1113Z" fill="#CED1CE"/>
<path d="M3.69554 79.1926C3.67353 79.0368 3.94866 78.9924 3.97066 79.1594C4.03669 79.6818 4.05876 80.1929 4.02574 80.7153C4.01474 80.9049 3.71759 80.9049 3.72859 80.7153C3.77261 80.2042 3.76157 79.6931 3.69554 79.1926Z" fill="#CED1CE"/>
<path d="M3.6955 85.3392C3.67349 85.1615 3.95962 85.1615 3.98163 85.3392C4.04766 85.9623 4.05871 86.5848 4.0257 87.2179C4.01469 87.4075 3.72856 87.4075 3.73956 87.2179C3.77257 86.5954 3.76153 85.9729 3.6955 85.3392Z" fill="#CED1CE"/>
<path d="M3.56331 91.3194C3.57432 91.1305 3.86046 91.1305 3.86046 91.3194C3.82745 91.8862 3.79447 92.453 3.76145 93.0092C3.75045 93.2094 3.44229 93.2094 3.45329 93.0092C3.48631 92.453 3.51929 91.8862 3.56331 91.3194Z" fill="#CED1CE"/>
<path d="M3.10854 96.5896C3.09754 96.3894 3.40556 96.3894 3.40556 96.5896C3.43857 97.2346 3.40561 97.8677 3.31756 98.5015C3.28456 98.7017 2.98739 98.6241 3.0094 98.4126C3.09744 97.8127 3.13055 97.2008 3.10854 96.5896Z" fill="#CED1CE"/>
<path d="M2.95637 103.372C2.97838 103.194 3.26451 103.183 3.2425 103.372C3.20949 103.694 3.17637 104.028 3.13235 104.35C3.11034 104.528 2.82434 104.539 2.84635 104.35C2.89037 104.028 2.92335 103.694 2.95637 103.372Z" fill="#CED1CE"/>
<path d="M2.54045 108.573C2.67251 108.229 2.72751 107.885 2.66149 107.517C2.62847 107.284 2.98057 107.184 3.01358 107.417C3.07961 107.873 3.03558 108.284 2.8595 108.707C2.79347 108.896 2.46342 108.762 2.54045 108.573Z" fill="#CED1CE"/>
<path d="M17.7579 110.551C17.8239 110.351 18.1431 110.44 18.0771 110.64C18 110.896 17.9669 111.141 17.9889 111.396C18.0109 111.596 17.7029 111.596 17.6809 111.396C17.6479 111.107 17.6808 110.829 17.7579 110.551Z" fill="#CED1CE"/>
<path d="M17.6894 106.217C17.7114 106.038 17.9866 106.038 17.9755 106.217C17.9425 106.539 17.9094 106.872 17.8654 107.194C17.8434 107.373 17.5793 107.373 17.5903 107.194C17.6233 106.872 17.6564 106.55 17.6894 106.217Z" fill="#CED1CE"/>
<path d="M18.1454 100.303C18.2775 99.9135 18.3656 99.5025 18.3877 99.0908C18.3986 98.8913 18.7067 98.8913 18.6956 99.0908C18.6626 99.5356 18.5746 99.9692 18.4316 100.381C18.3656 100.559 18.0904 100.48 18.1454 100.303Z" fill="#CED1CE"/>
<path d="M18.8447 93.155C18.8888 92.9548 19.197 93.0436 19.1529 93.2438C19.0979 93.5216 19.0539 93.7994 19.0319 94.0884C19.0209 94.2773 18.7457 94.2773 18.7457 94.0884C18.7457 93.7775 18.7677 93.4659 18.8447 93.155Z" fill="#CED1CE"/>
<path d="M19.3062 87.6608C19.3062 88.1387 19.2953 88.6167 19.2953 89.0841C19.2953 89.2617 19.0201 89.2617 19.0201 89.0841C19.0201 88.6061 19.0091 88.1281 19.0091 87.6608C18.9981 87.4606 19.3172 87.4606 19.3062 87.6608Z" fill="#CED1CE"/>
<path d="M19.0652 82.8731C19.0542 82.6623 19.3733 82.6623 19.3953 82.8731C19.4503 83.3961 19.4064 83.896 19.3183 84.4077C19.2853 84.5967 19.0102 84.5184 19.0322 84.3295C19.1092 83.8403 19.0982 83.351 19.0652 82.8731Z" fill="#CED1CE"/>
<path d="M19.8459 78.2579C19.89 78.0576 20.1871 78.1352 20.1541 78.3467C20.0771 78.769 20.066 79.1919 20.088 79.6255C20.099 79.825 19.8128 79.8144 19.7909 79.6255C19.7359 79.1581 19.7579 78.7139 19.8459 78.2579Z" fill="#CED1CE"/>
<path d="M19.9471 72.8538C19.936 72.6536 20.2443 72.6536 20.2663 72.8538C20.3103 73.3655 20.2773 73.8766 20.1782 74.3878C20.1452 74.5661 19.881 74.4879 19.914 74.3102C19.9801 73.8322 19.9911 73.343 19.9471 72.8538Z" fill="#CED1CE"/>
<path d="M21.0368 66.7184C21.0368 67.2414 21.0368 67.7751 21.0368 68.2974C21.0368 68.4864 20.7507 68.4864 20.7507 68.2974C20.7507 67.7751 20.7507 67.2414 20.7507 66.7184C20.7507 66.5294 21.0368 66.5294 21.0368 66.7184Z" fill="#CED1CE"/>
<path d="M21.2234 60.9162C21.2234 61.472 21.2234 62.0279 21.2234 62.5837C21.2234 62.7838 20.9262 62.7838 20.9262 62.5837C20.9262 62.0279 20.9262 61.472 20.9262 60.9162C20.9153 60.7161 21.2234 60.7161 21.2234 60.9162Z" fill="#CED1CE"/>
<path d="M20.7604 54.4331C20.9695 54.8111 21.0576 55.2224 21.0465 55.6559C21.0356 55.8449 20.7494 55.8449 20.7494 55.6559C20.7604 55.278 20.6724 54.9333 20.4963 54.5887C20.4083 54.4109 20.6614 54.2664 20.7604 54.4331Z" fill="#CED1CE"/>
<path d="M19.9344 52.2465C20.1435 52.2465 20.1435 52.5688 19.9344 52.5688C19.7363 52.5688 19.7363 52.2465 19.9344 52.2465Z" fill="#CED1CE"/>
<path d="M11.5455 7.86722C11.1274 8.76766 10.8633 9.74587 10.7643 10.7353C10.5112 10.6797 10.445 10.3239 10.247 10.1684C9.88379 9.87932 9.36666 10.3796 9.37769 10.8465C9.38864 11.3133 9.68566 11.7136 9.82873 12.1582C10.1479 13.1587 9.68579 14.2704 9.90584 15.2931C9.97192 15.6044 10.104 15.9045 10.192 16.2158C10.4671 17.1941 10.335 18.2724 10.6872 19.2173C11.0283 20.1511 11.8206 20.9182 11.9087 21.9076C9.24552 21.9854 6.57149 22.0632 3.9083 22.141C3.66619 22.1521 3.39095 22.141 3.23689 21.952C3.10483 21.8075 3.09382 21.5852 3.09382 21.385C2.98377 17.3831 3.31393 13.3811 4.07326 9.4569C4.43642 7.58926 4.90973 5.71056 5.82313 4.04306C6.73654 2.37555 8.13409 0.93039 9.90584 0.33009C12.1068 -0.425844 14.5499 0.207778 16.6077 1.30833C18.1705 2.14208 19.7221 3.42051 20.0192 5.2103C20.1293 5.88841 19.9972 6.67767 19.4579 7.07788C19.1718 7.28908 18.8088 7.36691 18.4677 7.41139C17.114 7.57819 15.9365 7.28915 14.627 7.05567C13.4054 6.83333 12.8992 7.84494 12.415 8.84542C12.0408 8.58974 11.7767 8.22294 11.5455 7.86722Z" fill="#F26622"/>
<defs>
<linearGradient id="paint0_linear_456_3327" x1="-0.00884237" y1="115.302" x2="40.4509" y2="115.302" gradientUnits="userSpaceOnUse">
<stop stop-color="white"/>
<stop offset="1"/>
</linearGradient>
<linearGradient id="paint1_linear_456_3327" x1="-0.0056372" y1="115.302" x2="40.4541" y2="115.302" gradientUnits="userSpaceOnUse">
<stop/>
<stop offset="1"/>
</linearGradient>
</defs>
</svg>
