<svg width="61" height="124" viewBox="0 0 61 124" fill="none" xmlns="http://www.w3.org/2000/svg">
<path d="M8.44068 123.133C10.8837 123.223 13.3266 123.189 15.7696 123.167C22.5854 123.089 29.4011 123.022 36.2169 122.944C37.2766 122.933 38.6487 122.732 38.7156 122.018C38.7825 121.371 37.7006 120.958 36.7858 120.757C33.5174 120.044 30.0816 119.899 26.6905 119.764C21.7041 119.564 16.7066 119.396 11.7203 119.263C8.60805 119.173 5.40656 119.106 2.50623 119.809C0.922211 120.189 -1.40926 121.839 1.12295 122.665C1.82572 122.888 3.23126 122.799 3.97865 122.865C5.47343 122.977 6.95706 123.078 8.44068 123.133Z" fill="url(#paint0_linear_456_3469)"/>
<path opacity="0.22" d="M8.43842 123.133C10.8814 123.223 13.3243 123.189 15.7673 123.167C22.5831 123.089 29.3989 123.022 36.2146 122.944C37.2744 122.933 38.6464 122.732 38.7134 122.018C38.7803 121.371 37.6982 120.958 36.7836 120.757C33.5151 120.044 30.0794 119.899 26.6882 119.764C21.7019 119.564 16.7043 119.396 11.718 119.263C8.60572 119.173 5.40428 119.106 2.50396 119.809C0.919935 120.189 -1.41153 121.839 1.12067 122.665C1.82344 122.888 3.22898 122.799 3.97637 122.865C5.47116 122.977 6.95479 123.078 8.43842 123.133Z" fill="url(#paint1_linear_456_3469)"/>
<path d="M5.92936 33.8593C5.26005 35.3206 4.63541 36.8601 4.64656 38.4664C4.65772 40.0727 5.44972 41.7795 6.93338 42.4042C7.14531 42.4934 7.36843 42.5603 7.59154 42.538C7.85922 42.5157 8.09344 42.3707 8.31655 42.2145C9.91173 41.0656 10.8154 39.2026 11.7747 37.4847C14.2065 33.1454 17.4192 29.1853 18.9586 24.4668C19.0478 24.1879 19.137 23.8755 19.0144 23.5967C18.9363 23.4181 18.769 23.2843 18.6128 23.1616C17.91 22.6373 17.0733 22.2357 16.1921 22.2692C15.322 22.3026 14.4185 22.8604 14.2177 23.7082C14.1396 23.0946 14.2957 22.4811 14.463 21.8899C14.6303 21.2987 14.8088 20.6964 14.7977 20.0717C14.7754 19.3019 13.883 17.651 12.9348 18.4876C12.6225 18.7553 12.5778 19.3466 12.4663 19.7147C12.2655 20.3728 12.0201 21.0087 11.7636 21.6445C10.7038 24.3329 9.37637 26.8985 8.07122 29.4642C7.34614 30.9255 6.60982 32.3757 5.92936 33.8593Z" fill="#EBEBEB"/>
<path d="M12.3197 15.2087C12.2081 15.7107 12.275 16.235 12.3531 16.7369C12.4647 17.4063 12.5985 18.0979 12.9444 18.6891C13.279 19.2803 13.8479 19.7823 14.5284 19.8716C14.9076 19.9273 15.3204 19.8269 15.5993 19.5592C15.9785 19.1911 16.0232 18.611 16.0232 18.0867C16.012 17.2389 15.9228 16.38 15.7443 15.5434C15.6885 15.2868 15.6327 15.0191 15.4877 14.796C15.1307 14.2047 14.2383 13.8813 13.5579 13.9147C12.922 13.9594 12.4647 14.6175 12.3197 15.2087Z" fill="#F5D9C9"/>
<path d="M17.0602 17.2089C16.8036 16.495 16.547 15.781 16.2905 15.056C16.1565 14.6767 16.0227 14.3086 15.8331 13.9516C15.4984 13.3269 14.9964 12.7915 14.3941 12.4122C14.0929 12.2226 13.7024 12.0775 13.4124 12.2784C13.2562 12.323 13.1224 12.4011 12.9885 12.4903C12.7208 12.6577 12.4643 12.8362 12.1965 13.0035C12.085 13.0704 11.9734 13.1485 11.8842 13.2488C11.7391 13.4273 11.6945 13.6616 11.7168 13.8847C11.7391 14.1078 11.8283 14.3198 11.9288 14.5205C12.4642 15.6249 13.312 16.5508 13.9144 17.6217C14.1375 18.0233 14.3383 18.436 14.5948 18.8264C14.896 19.2726 15.2642 19.6519 15.6434 20.0312C15.6769 20.0646 15.7215 20.1093 15.7661 20.1204C15.8553 20.1427 15.9446 20.0981 16.0227 20.0423C16.3351 19.8304 16.6585 19.6296 16.9709 19.4176C17.0713 19.3507 17.1828 19.2726 17.2609 19.1722C17.3279 19.0719 17.3613 18.9379 17.3724 18.8153C17.4394 18.2798 17.2498 17.7332 17.0602 17.2089Z" fill="#EDEDED"/>
<path d="M14.7274 18.6465C14.9282 19.0593 15.1401 19.5278 15.5752 19.6951C16.0772 19.8847 16.6126 19.5612 17.0588 19.2601C17.2485 19.1262 17.4381 18.9923 17.5496 18.7915C17.717 18.4792 17.6277 18.1 17.5273 17.7653C17.2819 16.9287 16.9584 16.1143 16.6126 15.3223C16.3226 14.653 16.0214 13.9837 15.6979 13.3255C15.5975 13.1248 15.4971 12.9239 15.352 12.7678C15.0174 12.4108 14.482 12.3104 14.0023 12.3885C13.5226 12.4666 13.0876 12.712 12.6637 12.9574C12.4183 13.1024 12.1617 13.2586 12.0278 13.5152C11.6709 14.2068 12.7418 15.2888 13.0764 15.802C13.6788 16.7055 14.2589 17.6426 14.7274 18.6465Z" fill="#333333"/>
<path d="M17.041 17.222C16.7175 16.285 16.3159 15.3813 15.9255 14.4778C15.6912 13.9535 15.4458 13.3957 14.9996 13.0276C14.8658 12.9161 14.7096 12.8157 14.5311 12.8157C14.4084 12.8157 14.2969 12.8491 14.1853 12.8938C13.5941 13.1169 13.0252 13.3957 12.4787 13.7081L12.4451 13.7304C13.1702 14.8459 13.8395 15.9949 14.4308 17.1885C14.6985 17.7239 14.9662 18.2817 15.4124 18.6832C15.4681 18.7391 15.5351 18.7837 15.6132 18.806C15.7025 18.8283 15.8028 18.8172 15.9032 18.7948C16.0816 18.7613 16.2602 18.7167 16.4387 18.661C16.673 18.594 16.9072 18.5048 17.0522 18.304C17.1637 18.1478 17.1972 17.9471 17.186 17.7574C17.1637 17.5901 17.1079 17.4116 17.041 17.222Z" fill="white"/>
<path d="M16.4677 18.9042C16.3004 19.1719 16.7355 19.1942 16.8581 18.9934C17.0255 18.7145 16.5793 18.7145 16.4677 18.9042Z" fill="white"/>
<path d="M9.18412 53.4284C9.18412 53.4284 7.45504 109.427 7.42158 118.128L11.5824 118.251C11.5824 118.251 16.1226 74.1991 19.5696 71.5888C19.5696 71.5888 20.9973 71.388 21.5439 71.5888C22.0905 71.7897 23.5296 115.205 22.6148 118.429H26.3072C26.3072 118.429 34.5954 66.1786 34.1046 53.7742C34.1046 53.7742 34.4281 47.5496 23.4515 48.1074C12.486 48.6763 10.2773 47.2484 9.18412 53.4284Z" fill="#213355"/>
<path d="M14.5854 5.24821C14.1393 6.4418 14.0946 7.75811 14.2732 9.01862C14.4517 10.2791 14.8421 11.5063 15.2437 12.711C15.846 10.9262 16.4484 9.119 17.4523 7.52382C17.9208 6.77646 18.5009 5.99561 18.4786 5.11435C18.4674 4.52313 18.1551 3.94307 17.6643 3.60841C16.1918 2.58214 15.0875 3.94307 14.5854 5.24821Z" fill="#EDE1BB"/>
<path d="M15.4 14.5969C15.4558 15.3889 15.5004 16.2032 15.7681 16.9394C16.3593 18.5793 17.8318 19.494 19.2262 20.2302C20.2971 20.788 21.5241 21.3234 22.595 20.7991C23.5209 20.3417 24.0563 19.2485 24.7702 18.4231C25.3057 17.7984 25.9639 17.3076 26.477 16.6494C27.626 15.177 27.9049 13.0464 27.9049 11.0496C27.916 8.5285 27.4698 5.77321 25.8077 4.15571C24.9376 3.30793 23.8221 2.87287 22.7066 2.61631C21.6581 2.3709 20.5648 2.28166 19.5386 2.60516C18.2669 3.00674 17.1848 4.04416 16.4263 5.30469C14.608 8.33885 15.1769 11.15 15.4 14.5969Z" fill="#F5D9C9"/>
<path d="M31.1623 5.23722C30.9504 3.99901 30.6603 2.53769 29.5113 2.00224C28.7974 1.66759 27.9608 1.82377 27.18 1.93532C26.4214 2.04687 25.6517 2.10264 24.8931 2.00224C23.4207 1.7903 22.1155 0.953669 20.7323 0.418224C19.3379 -0.106066 17.6088 -0.273393 16.4933 0.730563C15.8017 1.35525 15.4894 2.39268 15.7348 3.29624C15.891 3.87631 16.1698 4.27789 16.5268 4.56792C16.114 6.30812 19.1817 7.51284 20.7099 7.64675C22.082 7.75831 23.4653 7.5463 24.8374 7.33437C25.0828 9.31996 25.3171 11.3056 25.5624 13.3024C25.7409 12.4546 26.1425 11.6626 26.7114 11.0156C27.0906 11.2387 27.2134 11.7407 27.1576 12.1757C27.1018 12.6108 26.9011 13.0124 26.7449 13.4139C26.1871 14.9198 26.321 16.6712 25.5067 18.0656C25.6852 17.8983 25.8524 17.7198 26.0086 17.5301C25.9974 17.6305 25.9975 17.7421 25.9863 17.8425C27.9831 16.4704 29.6117 14.5852 30.6938 12.4211C31.1176 11.5733 31.4635 10.6697 31.5861 9.72155C31.7758 8.21564 31.4189 6.72084 31.1623 5.23722Z" fill="#EDE1BB"/>
<path d="M7.91417 57.3308C7.89188 57.922 7.86953 58.5356 8.10382 59.0821C8.68388 60.4319 11.7961 60.4877 13.4025 60.7666C18.8908 61.7371 25.952 62.6295 31.5406 62.3506C32.1542 62.3171 32.8012 62.2726 33.3367 62.0048C34.2737 61.5475 34.6642 60.5546 34.9207 59.6399C36.1478 55.3229 34.7645 50.2808 34.8091 45.8299C34.8426 42.171 34.876 38.5233 34.5972 34.8756C34.3294 31.4175 33.7606 27.9036 32.0539 24.7691C31.5184 23.7986 30.8491 22.8281 29.8116 22.248C28.8746 21.7237 27.7257 21.5676 26.6102 21.4672C24.4126 21.2775 22.2039 21.2887 20.0063 21.4895C18.4781 21.6345 17.396 21.4449 15.9459 21.1994C15.165 21.0656 15.3435 20.8871 14.8416 21.456C14.44 21.9245 14.2838 22.8504 14.083 23.4081C13.1236 26.0073 12.3651 28.6734 11.7627 31.3617C10.5468 36.772 9.96674 42.2603 9.60979 47.7598C9.43132 50.8051 8.0369 54.2966 7.91417 57.3308Z" fill="#F2F2F2"/>
<path d="M19.4933 23.1092C19.9953 23.1427 20.1961 23.8343 19.9953 24.2917C19.7945 24.749 19.3706 25.0614 19.0359 25.4406C18.2774 26.3107 18.0543 27.5044 17.8646 28.6421C17.2845 32.1337 16.7045 35.6253 16.1133 39.1168C15.9125 40.355 15.7005 41.6044 15.7786 42.8537C15.8567 44.1031 16.2249 45.3302 16.2025 46.5907C16.1914 46.9254 16.1579 47.2712 15.9572 47.5501C15.8122 47.7508 15.589 47.8959 15.3771 48.0297C14.9644 48.2863 14.5516 48.554 14.1389 48.8106C13.9492 48.9221 13.7373 49.0448 13.5254 48.9891C13.3023 48.9221 13.2018 48.6879 13.068 48.4982C12.856 48.1859 12.5325 47.9739 12.2982 47.6839C11.6066 46.8361 11.8075 45.5979 12.0417 44.527C12.5772 42.1064 13.1126 39.6746 13.648 37.2539C14.44 33.7177 15.2544 30.1481 16.8607 26.9019C17.1061 26.4112 17.385 25.9092 17.4743 25.3626C17.5523 24.8605 17.1731 24.2917 17.2623 23.879C17.4073 23.2765 18.9579 23.0758 19.4933 23.1092Z" fill="#363636"/>
<path d="M53.8312 47.1113C55.5156 46.9551 57.3116 46.8213 58.8287 47.591C60.3459 48.3495 61.3609 50.3574 60.4797 51.8076C59.8438 52.845 58.5387 53.2131 57.3563 53.4808C45.4872 56.1358 33.2947 56.8831 21.1579 57.6194C20.2544 57.6751 19.3285 57.7198 18.4807 57.4186C16.9301 56.8608 15.3127 53.9493 16.9078 52.633C17.7222 51.9526 19.4736 51.9749 20.4663 51.7853C21.9723 51.5064 23.4782 51.2275 24.973 50.9709C31.0748 49.9112 37.199 48.9965 43.3343 48.2491C46.837 47.814 50.3285 47.4348 53.8312 47.1113Z" fill="#EBEBEB"/>
<path d="M20.9245 53.8271C20.4003 52.7339 18.8608 51.8861 17.8569 52.9235C16.7749 54.0278 17.6338 55.5673 18.4705 56.5043C18.6155 56.6717 18.9166 56.4485 18.7828 56.2701C18.37 55.7123 17.9239 55.0876 17.9015 54.3737C17.8681 53.4701 18.5597 52.7673 19.4744 53.1243C20.2106 53.4143 20.5342 54.184 20.6903 54.9091C20.7238 55.0653 20.8242 55.3665 20.7796 55.5004L20.7907 55.6565C20.6234 55.623 20.4561 55.5896 20.2888 55.5561C20.1214 55.4445 19.9876 55.1434 19.9095 54.9649C19.8983 54.9315 19.7086 54.396 19.7086 54.396C20.1326 54.4852 20.3222 53.8271 19.8871 53.7378C18.3477 53.4255 19.4633 55.8796 20.2218 56.2366C20.6234 56.4262 21.1923 56.3816 21.3373 55.8908C21.5046 55.3107 21.17 54.329 20.9245 53.8271Z" fill="#E0E0E0"/>
<path d="M42.7749 42.73C45.1956 40.934 47.8282 39.0265 50.8401 38.9931C52.2679 38.9819 53.93 39.6512 54.1978 41.0456C54.4655 42.4734 53.1716 43.667 52.0114 44.526C45.1398 49.5904 37.889 54.1417 31.341 59.63C29.9243 60.8236 28.5187 62.0618 26.8454 62.8761C25.1833 63.6905 23.1866 64.0251 21.4687 63.3223C20.1636 62.7869 18.2672 60.7901 19.0368 59.2284C19.3939 58.5033 20.5651 58.0348 21.201 57.6332C22.2384 56.9639 23.287 56.2946 24.3244 55.6141C28.3738 52.9593 32.3784 50.2374 36.3162 47.4263C38.4803 45.8869 40.6332 44.3252 42.7749 42.73Z" fill="#F2F2F2"/>
<path d="M32.4554 59.0379C40.4424 55.7807 48.8199 53.3711 56.3384 49.1322C57.1193 48.6971 57.9225 48.1952 58.3241 47.392C58.5695 46.9012 58.6364 46.3323 58.6587 45.7857C58.7368 44.2016 58.391 42.3611 56.9966 41.5802C55.5018 40.7436 53.6613 41.5579 52.1442 42.3388C47.3809 44.8041 42.4838 47.0128 37.4864 48.9537C34.5526 50.0916 31.5742 51.1513 28.7742 52.5903C26.1528 53.9401 23.6763 55.6356 20.8875 56.6061C19.5601 57.0746 18.0541 57.4428 17.2398 58.5917C16.6821 59.3838 16.5706 60.3877 16.5036 61.3582C16.4478 62.2729 16.4255 63.2546 16.8828 64.0466C18.333 66.5451 22.2485 63.6004 23.8994 62.8195C26.744 61.492 29.5774 60.2092 32.4554 59.0379Z" fill="#E8E8E8"/>
<path d="M20.4764 61.4271C20.4094 60.6017 20.1529 58.538 18.8924 58.7276C17.6877 58.9172 17.3529 61.1817 17.3195 62.1076C17.3084 62.3419 17.6653 62.3307 17.6765 62.1076C17.7434 61.2933 17.9665 60.5012 18.4239 59.8208C19.3943 58.3595 19.8294 60.8805 19.8629 61.4271C19.8852 61.7841 19.8851 62.1522 19.8182 62.498C19.7959 62.7435 19.7179 62.9665 19.584 63.1785C18.9258 63.4908 18.6247 63.4351 18.6693 63.0111C18.4685 62.4422 18.7251 61.3268 18.792 60.7467C18.8477 60.3116 18.1561 60.3116 18.1004 60.7467C18.0111 61.5499 17.4645 64.149 18.8366 64.2717C20.2979 64.4056 20.5545 62.4311 20.4764 61.4271Z" fill="#D1D1D1"/>
<path d="M57.1621 49.3765C57.0952 49.0977 57.0171 48.8077 56.8051 48.6068C56.6489 48.4618 56.4258 48.3837 56.2139 48.3391C54.7415 47.9933 53.2132 48.5176 51.7966 49.0419C40.1953 53.3366 28.7946 58.2114 17.6619 63.6216C17.1933 63.8447 16.7137 64.0901 16.3791 64.4805C15.9105 65.0271 15.799 65.8526 16.1113 66.5107C16.4236 67.1579 17.1264 67.6042 17.8515 67.5929C18.2531 67.5816 18.6436 67.4479 19.0228 67.3248C22.6482 66.0646 26.2625 64.804 29.8879 63.5435C36.4806 61.8256 43.0398 59.9627 49.5543 57.966C51.2388 57.4528 52.9232 56.9174 54.5742 56.3373C55.5893 55.9804 56.6824 55.523 57.1956 54.5748C57.4968 54.0171 57.5525 53.3589 57.5525 52.7342C57.5414 51.5964 57.4187 50.4697 57.1621 49.3765Z" fill="#F2F2F2"/>
<path d="M18.1852 65.7083C18.0067 65.2733 17.5605 64.7601 17.025 64.8605C16.4673 64.9721 16.6904 65.8422 16.8019 66.1991C16.8465 66.3441 17.0696 66.2884 17.0362 66.1322C17.0027 65.9872 16.9804 65.8422 16.9692 65.686C16.9581 65.5409 17.025 65.2733 17.2147 65.2286C17.4266 65.184 17.6944 65.6079 17.7725 65.753C17.8729 65.9537 17.9286 66.1768 17.9732 66.3999C17.9955 66.5003 18.0736 66.8126 17.8394 66.7567C17.7278 66.7347 17.6051 66.3665 17.5828 66.2884C17.5047 66.0429 17.1031 66.1545 17.1924 66.3999C17.3151 66.746 17.6497 67.4259 18.1294 67.203C18.6648 66.9576 18.3414 66.0987 18.1852 65.7083Z" fill="#E0E0E0"/>
<path d="M30.4368 25.9413C31.2177 25.6513 32.1436 25.5175 32.824 25.986C33.2256 26.2648 33.4821 26.6999 33.7164 27.1349C34.5865 28.7524 35.3785 30.4145 36.1594 32.0878C37.1076 34.0845 38.0446 36.0813 38.9928 38.0781C39.6175 39.3944 40.2422 40.7107 40.6215 42.1162C41.6923 46.0429 40.7999 50.2037 39.9075 54.1638C39.3832 56.4951 38.8589 58.8377 38.0111 61.0799C37.933 61.2696 37.8438 61.4815 37.6653 61.5819C37.5091 61.66 37.3307 61.6488 37.1633 61.6376C36.6837 61.5931 36.204 61.5484 35.7243 61.5038C35.5124 61.4815 35.2781 61.448 35.1666 61.2696C35.0773 61.1134 35.1108 60.9237 35.1554 60.7564C36.2709 56.0378 36.9737 51.23 37.2637 46.3886C37.2972 45.9089 37.3195 45.4181 37.2192 44.9496C36.9849 43.8564 36.1371 43.0198 35.4009 42.172C32.7682 39.149 31.2288 35.2893 28.5181 32.3332C27.6257 31.3627 26.3206 30.0687 26.9676 28.6744C27.5476 27.4138 29.1875 26.3987 30.4368 25.9413Z" fill="#EBEBEB"/>
<path d="M34.566 63.2546C34.3987 63.5223 34.2202 63.857 34.3764 64.1359C34.4321 64.2363 34.5214 64.3032 34.566 64.4036C34.6553 64.5821 34.5771 64.8052 34.5995 65.006C34.6441 65.3183 34.9342 65.5191 35.2019 65.6753C35.425 65.8091 35.6815 65.9318 35.9269 65.8761C36.0273 65.8538 36.1277 65.798 36.2169 65.7422C36.7301 65.4298 37.1874 64.9837 37.3883 64.4147C37.4775 64.1582 37.511 63.8793 37.5444 63.6115C37.6225 62.9646 37.7006 62.3288 37.7787 61.6818C37.8122 61.4475 37.8233 61.1909 37.6671 61.0124C37.5667 60.9009 37.4218 60.8562 37.2879 60.8228C37.0759 60.767 36.8528 60.7112 36.6297 60.6778C36.3285 60.6332 35.9716 60.6108 35.7262 60.834C35.5365 61.0013 35.5589 61.2133 35.4808 61.4363C35.28 62.0722 34.9119 62.6969 34.566 63.2546Z" fill="#F5D9C9"/>
<path d="M20.261 118.571C20.0156 118.739 19.8037 118.951 19.4914 119.051C18.9448 119.241 18.2532 119.04 17.6842 119.196C17.0038 119.375 16.7472 119.944 16.6022 120.445C16.446 120.97 16.3791 121.605 16.9591 121.963C17.3272 122.185 17.8404 122.23 18.3313 122.241C21.12 122.364 23.9423 122.253 26.6976 121.907C26.9876 121.874 27.2999 121.829 27.5118 121.673C27.735 121.516 27.7908 121.271 27.8131 121.048C27.9358 119.966 27.9804 117.701 25.939 117.579C24.4665 117.49 21.3208 117.869 20.261 118.571Z" fill="#3D322B"/>
<path d="M7.23299 117.355C7.03223 117.333 6.80905 117.322 6.63059 117.378C6.18439 117.523 6.18439 117.98 5.93898 118.293C5.62664 118.694 4.92389 118.828 4.28805 118.861C3.65221 118.895 2.98293 118.883 2.43633 119.129C1.67778 119.475 1.46583 120.2 1.38775 120.858C1.36544 121.003 1.35428 121.159 1.45468 121.293C1.61085 121.516 2.00125 121.584 2.33591 121.617C5.00198 121.907 7.73496 121.94 10.4122 121.717C11.0257 121.661 11.7173 121.561 12.0073 121.17C12.4982 120.524 12.7436 118.806 11.974 118.192C11.0927 117.467 8.4601 117.355 7.23299 117.355Z" fill="#3D322B"/>
<defs>
<linearGradient id="paint0_linear_456_3469" x1="0.0639376" y1="120.579" x2="38.693" y2="122.481" gradientUnits="userSpaceOnUse">
<stop stop-color="white"/>
<stop offset="1"/>
</linearGradient>
<linearGradient id="paint1_linear_456_3469" x1="0.0616624" y1="120.579" x2="38.6907" y2="122.481" gradientUnits="userSpaceOnUse">
<stop/>
<stop offset="1"/>
</linearGradient>
</defs>
</svg>
